<svg width="650" height="822" viewBox="0 0 650 822" fill="none" xmlns="http://www.w3.org/2000/svg">
<g opacity="0.8">
<path d="M0 0H650V822H0V0Z" fill="#5E50A1"/>
<path d="M92.3008 518.902H89.8662L85.832 513.084L84.5928 514.095V518.902H82.4922V506.053H84.5928V512.188C85.167 511.484 85.7383 510.808 86.3066 510.157L89.7783 506.053H92.1689C89.9248 508.689 88.3164 510.567 87.3438 511.687L92.3008 518.902ZM99.8682 518.902L99.4551 517.549H99.3848C98.916 518.141 98.4443 518.545 97.9697 518.762C97.4951 518.973 96.8857 519.078 96.1416 519.078C95.1865 519.078 94.4395 518.82 93.9004 518.305C93.3672 517.789 93.1006 517.06 93.1006 516.116C93.1006 515.114 93.4727 514.358 94.2168 513.849C94.9609 513.339 96.0947 513.061 97.6182 513.014L99.2969 512.961V512.442C99.2969 511.821 99.1504 511.358 98.8574 511.054C98.5703 510.743 98.1221 510.588 97.5127 510.588C97.0146 510.588 96.5371 510.661 96.0801 510.808C95.623 510.954 95.1836 511.127 94.7617 511.326L94.0938 509.85C94.6211 509.574 95.1982 509.366 95.8252 509.226C96.4521 509.079 97.0439 509.006 97.6006 509.006C98.8369 509.006 99.7686 509.275 100.396 509.814C101.028 510.354 101.345 511.2 101.345 512.354V518.902H99.8682ZM96.792 517.496C97.542 517.496 98.1426 517.288 98.5938 516.872C99.0508 516.45 99.2793 515.861 99.2793 515.105V514.262L98.0312 514.314C97.0586 514.35 96.3496 514.514 95.9043 514.807C95.4648 515.094 95.2451 515.536 95.2451 516.134C95.2451 516.567 95.374 516.904 95.6318 517.145C95.8896 517.379 96.2764 517.496 96.792 517.496ZM112.419 518.902H110.345V512.908C110.345 512.164 110.204 511.61 109.923 511.247C109.642 510.878 109.202 510.693 108.604 510.693C107.808 510.693 107.222 510.954 106.847 511.476C106.478 511.991 106.293 512.853 106.293 514.06V518.902H104.228V509.182H105.845L106.135 510.456H106.24C106.51 509.993 106.899 509.636 107.409 509.384C107.925 509.132 108.49 509.006 109.105 509.006C110.6 509.006 111.59 509.516 112.076 510.535H112.217C112.504 510.055 112.908 509.68 113.43 509.41C113.951 509.141 114.549 509.006 115.223 509.006C116.383 509.006 117.227 509.299 117.754 509.885C118.287 510.471 118.554 511.364 118.554 512.565V518.902H116.488V512.908C116.488 512.164 116.345 511.61 116.058 511.247C115.776 510.878 115.337 510.693 114.739 510.693C113.937 510.693 113.348 510.945 112.973 511.449C112.604 511.947 112.419 512.715 112.419 513.752V518.902ZM123.502 518.902H121.437V509.182H123.502V518.902ZM121.313 506.606C121.313 506.237 121.413 505.953 121.612 505.754C121.817 505.555 122.107 505.455 122.482 505.455C122.846 505.455 123.127 505.555 123.326 505.754C123.531 505.953 123.634 506.237 123.634 506.606C123.634 506.958 123.531 507.236 123.326 507.441C123.127 507.641 122.846 507.74 122.482 507.74C122.107 507.74 121.817 507.641 121.612 507.441C121.413 507.236 121.313 506.958 121.313 506.606ZM139.867 509.938C139.867 511.279 139.428 512.308 138.549 513.022C137.67 513.737 136.419 514.095 134.796 514.095H133.46V518.902H131.359V506.053H135.06C136.665 506.053 137.866 506.381 138.663 507.037C139.466 507.693 139.867 508.66 139.867 509.938ZM133.46 512.328H134.576C135.654 512.328 136.445 512.141 136.949 511.766C137.453 511.391 137.705 510.805 137.705 510.008C137.705 509.27 137.479 508.719 137.028 508.355C136.577 507.992 135.874 507.811 134.919 507.811H133.46V512.328ZM144.279 518.902H142.214V509.182H144.279V518.902ZM142.091 506.606C142.091 506.237 142.19 505.953 142.39 505.754C142.595 505.555 142.885 505.455 143.26 505.455C143.623 505.455 143.904 505.555 144.104 505.754C144.309 505.953 144.411 506.237 144.411 506.606C144.411 506.958 144.309 507.236 144.104 507.441C143.904 507.641 143.623 507.74 143.26 507.74C142.885 507.74 142.595 507.641 142.39 507.441C142.19 507.236 142.091 506.958 142.091 506.606ZM149.307 518.902H147.241V505.227H149.307V518.902ZM154.334 518.902H152.269V509.182H154.334V518.902ZM152.146 506.606C152.146 506.237 152.245 505.953 152.444 505.754C152.649 505.555 152.939 505.455 153.314 505.455C153.678 505.455 153.959 505.555 154.158 505.754C154.363 505.953 154.466 506.237 154.466 506.606C154.466 506.958 154.363 507.236 154.158 507.441C153.959 507.641 153.678 507.74 153.314 507.74C152.939 507.74 152.649 507.641 152.444 507.441C152.245 507.236 152.146 506.958 152.146 506.606ZM165.848 518.902H163.773V512.926C163.773 512.176 163.621 511.616 163.316 511.247C163.018 510.878 162.54 510.693 161.884 510.693C161.017 510.693 160.378 510.954 159.968 511.476C159.563 511.991 159.361 512.858 159.361 514.077V518.902H157.296V505.227H159.361V508.698C159.361 509.255 159.326 509.85 159.256 510.482H159.388C159.669 510.014 160.059 509.65 160.557 509.393C161.061 509.135 161.646 509.006 162.314 509.006C164.67 509.006 165.848 510.192 165.848 512.565V518.902ZM179.172 518.902L175.445 508.171H175.375C175.475 509.765 175.524 511.259 175.524 512.653V518.902H173.617V506.053H176.579L180.147 516.274H180.2L183.874 506.053H186.845V518.902H184.823V512.548C184.823 511.909 184.838 511.077 184.867 510.052C184.902 509.026 184.932 508.405 184.955 508.188H184.885L181.026 518.902H179.172ZM194.254 519.078C192.742 519.078 191.559 518.639 190.703 517.76C189.854 516.875 189.429 515.659 189.429 514.112C189.429 512.524 189.824 511.276 190.615 510.368C191.406 509.46 192.493 509.006 193.876 509.006C195.159 509.006 196.173 509.396 196.917 510.175C197.661 510.954 198.033 512.026 198.033 513.392V514.508H191.556C191.585 515.451 191.84 516.178 192.32 516.688C192.801 517.191 193.478 517.443 194.351 517.443C194.925 517.443 195.458 517.391 195.95 517.285C196.448 517.174 196.981 516.992 197.55 516.74V518.419C197.046 518.659 196.536 518.829 196.021 518.929C195.505 519.028 194.916 519.078 194.254 519.078ZM193.876 510.57C193.22 510.57 192.692 510.778 192.294 511.194C191.901 511.61 191.667 512.217 191.591 513.014H196.003C195.991 512.211 195.798 511.604 195.423 511.194C195.048 510.778 194.532 510.57 193.876 510.57ZM208.932 518.902H206.857V512.926C206.857 512.176 206.705 511.616 206.4 511.247C206.102 510.878 205.624 510.693 204.968 510.693C204.095 510.693 203.456 510.951 203.052 511.467C202.647 511.982 202.445 512.847 202.445 514.06V518.902H200.38V509.182H201.997L202.287 510.456H202.393C202.686 509.993 203.102 509.636 203.641 509.384C204.18 509.132 204.777 509.006 205.434 509.006C207.766 509.006 208.932 510.192 208.932 512.565V518.902ZM215.427 517.408C215.931 517.408 216.435 517.329 216.938 517.171V518.727C216.71 518.826 216.414 518.908 216.051 518.973C215.693 519.043 215.321 519.078 214.935 519.078C212.978 519.078 211.999 518.047 211.999 515.984V510.746H210.672V509.832L212.096 509.076L212.799 507.02H214.073V509.182H216.842V510.746H214.073V515.949C214.073 516.447 214.196 516.816 214.442 517.057C214.694 517.291 215.022 517.408 215.427 517.408ZM227.512 514.024C227.512 515.612 227.104 516.852 226.29 517.742C225.476 518.633 224.342 519.078 222.889 519.078C221.98 519.078 221.178 518.873 220.48 518.463C219.783 518.053 219.247 517.464 218.872 516.696C218.497 515.929 218.31 515.038 218.31 514.024C218.31 512.448 218.714 511.218 219.522 510.333C220.331 509.448 221.471 509.006 222.941 509.006C224.348 509.006 225.461 509.46 226.281 510.368C227.102 511.271 227.512 512.489 227.512 514.024ZM220.437 514.024C220.437 516.269 221.266 517.391 222.924 517.391C224.564 517.391 225.385 516.269 225.385 514.024C225.385 511.804 224.559 510.693 222.906 510.693C222.039 510.693 221.409 510.98 221.017 511.555C220.63 512.129 220.437 512.952 220.437 514.024ZM234.824 509.006C235.24 509.006 235.583 509.035 235.853 509.094L235.65 511.019C235.357 510.948 235.053 510.913 234.736 510.913C233.91 510.913 233.239 511.183 232.724 511.722C232.214 512.261 231.959 512.961 231.959 513.822V518.902H229.894V509.182H231.511L231.783 510.896H231.889C232.211 510.315 232.63 509.855 233.146 509.516C233.667 509.176 234.227 509.006 234.824 509.006ZM246.997 518.902H244.896V507.854H241.117V506.053H250.776V507.854H246.997V518.902ZM256.779 519.078C255.268 519.078 254.084 518.639 253.229 517.76C252.379 516.875 251.954 515.659 251.954 514.112C251.954 512.524 252.35 511.276 253.141 510.368C253.932 509.46 255.019 509.006 256.401 509.006C257.685 509.006 258.698 509.396 259.442 510.175C260.187 510.954 260.559 512.026 260.559 513.392V514.508H254.081C254.11 515.451 254.365 516.178 254.846 516.688C255.326 517.191 256.003 517.443 256.876 517.443C257.45 517.443 257.983 517.391 258.476 517.285C258.974 517.174 259.507 516.992 260.075 516.74V518.419C259.571 518.659 259.062 518.829 258.546 518.929C258.03 519.028 257.441 519.078 256.779 519.078ZM256.401 510.57C255.745 510.57 255.218 510.778 254.819 511.194C254.427 511.61 254.192 512.217 254.116 513.014H258.528C258.517 512.211 258.323 511.604 257.948 511.194C257.573 510.778 257.058 510.57 256.401 510.57ZM267.836 509.006C268.252 509.006 268.595 509.035 268.864 509.094L268.662 511.019C268.369 510.948 268.064 510.913 267.748 510.913C266.922 510.913 266.251 511.183 265.735 511.722C265.226 512.261 264.971 512.961 264.971 513.822V518.902H262.905V509.182H264.522L264.795 510.896H264.9C265.223 510.315 265.642 509.855 266.157 509.516C266.679 509.176 267.238 509.006 267.836 509.006ZM275.641 509.006C276.854 509.006 277.797 509.445 278.471 510.324C279.15 511.203 279.49 512.437 279.49 514.024C279.49 515.618 279.147 516.86 278.462 517.751C277.776 518.636 276.824 519.078 275.605 519.078C274.375 519.078 273.42 518.636 272.74 517.751H272.6L272.222 518.902H270.675V505.227H272.74V508.479C272.74 508.719 272.729 509.076 272.705 509.551C272.682 510.025 272.664 510.327 272.652 510.456H272.74C273.396 509.489 274.363 509.006 275.641 509.006ZM275.104 510.693C274.272 510.693 273.672 510.939 273.303 511.432C272.939 511.918 272.752 512.735 272.74 513.884V514.024C272.74 515.208 272.928 516.066 273.303 516.6C273.678 517.127 274.29 517.391 275.14 517.391C275.872 517.391 276.426 517.101 276.801 516.521C277.182 515.94 277.372 515.103 277.372 514.007C277.372 511.798 276.616 510.693 275.104 510.693ZM287.972 518.902L287.559 517.549H287.488C287.02 518.141 286.548 518.545 286.073 518.762C285.599 518.973 284.989 519.078 284.245 519.078C283.29 519.078 282.543 518.82 282.004 518.305C281.471 517.789 281.204 517.06 281.204 516.116C281.204 515.114 281.576 514.358 282.32 513.849C283.064 513.339 284.198 513.061 285.722 513.014L287.4 512.961V512.442C287.4 511.821 287.254 511.358 286.961 511.054C286.674 510.743 286.226 510.588 285.616 510.588C285.118 510.588 284.641 510.661 284.184 510.808C283.727 510.954 283.287 511.127 282.865 511.326L282.197 509.85C282.725 509.574 283.302 509.366 283.929 509.226C284.556 509.079 285.147 509.006 285.704 509.006C286.94 509.006 287.872 509.275 288.499 509.814C289.132 510.354 289.448 511.2 289.448 512.354V518.902H287.972ZM284.896 517.496C285.646 517.496 286.246 517.288 286.697 516.872C287.154 516.45 287.383 515.861 287.383 515.105V514.262L286.135 514.314C285.162 514.35 284.453 514.514 284.008 514.807C283.568 515.094 283.349 515.536 283.349 516.134C283.349 516.567 283.478 516.904 283.735 517.145C283.993 517.379 284.38 517.496 284.896 517.496ZM294.396 518.902H292.331V509.182H294.396V518.902ZM292.208 506.606C292.208 506.237 292.308 505.953 292.507 505.754C292.712 505.555 293.002 505.455 293.377 505.455C293.74 505.455 294.021 505.555 294.221 505.754C294.426 505.953 294.528 506.237 294.528 506.606C294.528 506.958 294.426 507.236 294.221 507.441C294.021 507.641 293.74 507.74 293.377 507.74C293.002 507.74 292.712 507.641 292.507 507.441C292.308 507.236 292.208 506.958 292.208 506.606ZM299.354 513.77L300.522 512.311L303.458 509.182H305.84L301.929 513.356L306.086 518.902H303.66L300.54 514.64L299.406 515.571V518.902H297.358V505.227H299.406V511.897L299.301 513.77H299.354ZM322.627 506.053V514.367C322.627 515.316 322.422 516.148 322.012 516.863C321.607 517.572 321.019 518.12 320.245 518.507C319.478 518.888 318.558 519.078 317.485 519.078C315.892 519.078 314.652 518.656 313.768 517.812C312.883 516.969 312.44 515.809 312.44 514.332V506.053H314.55V514.183C314.55 515.243 314.796 516.025 315.288 516.529C315.78 517.033 316.536 517.285 317.556 517.285C319.536 517.285 320.526 516.245 320.526 514.165V506.053H322.627ZM334.246 518.902H332.172V512.926C332.172 512.176 332.02 511.616 331.715 511.247C331.416 510.878 330.938 510.693 330.282 510.693C329.409 510.693 328.771 510.951 328.366 511.467C327.962 511.982 327.76 512.847 327.76 514.06V518.902H325.694V509.182H327.312L327.602 510.456H327.707C328 509.993 328.416 509.636 328.955 509.384C329.494 509.132 330.092 509.006 330.748 509.006C333.08 509.006 334.246 510.192 334.246 512.565V518.902ZM340.741 517.408C341.245 517.408 341.749 517.329 342.253 517.171V518.727C342.024 518.826 341.729 518.908 341.365 518.973C341.008 519.043 340.636 519.078 340.249 519.078C338.292 519.078 337.313 518.047 337.313 515.984V510.746H335.986V509.832L337.41 509.076L338.113 507.02H339.388V509.182H342.156V510.746H339.388V515.949C339.388 516.447 339.511 516.816 339.757 517.057C340.009 517.291 340.337 517.408 340.741 517.408ZM351.06 518.902L350.77 517.628H350.664C350.377 518.079 349.967 518.434 349.434 518.691C348.906 518.949 348.303 519.078 347.623 519.078C346.445 519.078 345.566 518.785 344.986 518.199C344.406 517.613 344.116 516.726 344.116 515.536V509.182H346.199V515.176C346.199 515.92 346.352 516.479 346.656 516.854C346.961 517.224 347.438 517.408 348.089 517.408C348.956 517.408 349.592 517.15 349.996 516.635C350.406 516.113 350.611 515.243 350.611 514.024V509.182H352.686V518.902H351.06ZM357.625 513.77L358.794 512.311L361.729 509.182H364.111L360.2 513.356L364.357 518.902H361.932L358.812 514.64L357.678 515.571V518.902H355.63V505.227H357.678V511.897L357.572 513.77H357.625ZM376.381 518.902L372.654 508.171H372.584C372.684 509.765 372.733 511.259 372.733 512.653V518.902H370.826V506.053H373.788L377.356 516.274H377.409L381.083 506.053H384.054V518.902H382.032V512.548C382.032 511.909 382.047 511.077 382.076 510.052C382.111 509.026 382.141 508.405 382.164 508.188H382.094L378.235 518.902H376.381ZM391.463 519.078C389.951 519.078 388.768 518.639 387.912 517.76C387.062 516.875 386.638 515.659 386.638 514.112C386.638 512.524 387.033 511.276 387.824 510.368C388.615 509.46 389.702 509.006 391.085 509.006C392.368 509.006 393.382 509.396 394.126 510.175C394.87 510.954 395.242 512.026 395.242 513.392V514.508H388.765C388.794 515.451 389.049 516.178 389.529 516.688C390.01 517.191 390.687 517.443 391.56 517.443C392.134 517.443 392.667 517.391 393.159 517.285C393.657 517.174 394.19 516.992 394.759 516.74V518.419C394.255 518.659 393.745 518.829 393.229 518.929C392.714 519.028 392.125 519.078 391.463 519.078ZM391.085 510.57C390.429 510.57 389.901 510.778 389.503 511.194C389.11 511.61 388.876 512.217 388.8 513.014H393.212C393.2 512.211 393.007 511.604 392.632 511.194C392.257 510.778 391.741 510.57 391.085 510.57ZM406.141 518.902H404.066V512.926C404.066 512.176 403.914 511.616 403.609 511.247C403.311 510.878 402.833 510.693 402.177 510.693C401.304 510.693 400.665 510.951 400.261 511.467C399.856 511.982 399.654 512.847 399.654 514.06V518.902H397.589V509.182H399.206L399.496 510.456H399.602C399.895 509.993 400.311 509.636 400.85 509.384C401.389 509.132 401.986 509.006 402.643 509.006C404.975 509.006 406.141 510.192 406.141 512.565V518.902ZM412.293 519.078C411.08 519.078 410.134 518.639 409.454 517.76C408.774 516.881 408.435 515.647 408.435 514.06C408.435 512.466 408.777 511.227 409.463 510.342C410.154 509.451 411.109 509.006 412.328 509.006C413.605 509.006 414.578 509.478 415.246 510.421H415.352C415.252 509.724 415.202 509.173 415.202 508.769V505.227H417.276V518.902H415.659L415.299 517.628H415.202C414.54 518.595 413.57 519.078 412.293 519.078ZM412.847 517.408C413.696 517.408 414.314 517.171 414.701 516.696C415.088 516.216 415.287 515.439 415.299 514.367V514.077C415.299 512.853 415.1 511.982 414.701 511.467C414.303 510.951 413.679 510.693 412.829 510.693C412.103 510.693 411.543 510.989 411.15 511.581C410.758 512.167 410.562 513.005 410.562 514.095C410.562 515.173 410.752 515.996 411.133 516.564C411.514 517.127 412.085 517.408 412.847 517.408ZM428.852 514.024C428.852 515.612 428.444 516.852 427.63 517.742C426.815 518.633 425.682 519.078 424.229 519.078C423.32 519.078 422.518 518.873 421.82 518.463C421.123 518.053 420.587 517.464 420.212 516.696C419.837 515.929 419.649 515.038 419.649 514.024C419.649 512.448 420.054 511.218 420.862 510.333C421.671 509.448 422.811 509.006 424.281 509.006C425.688 509.006 426.801 509.46 427.621 510.368C428.441 511.271 428.852 512.489 428.852 514.024ZM421.776 514.024C421.776 516.269 422.605 517.391 424.264 517.391C425.904 517.391 426.725 516.269 426.725 514.024C426.725 511.804 425.898 510.693 424.246 510.693C423.379 510.693 422.749 510.98 422.356 511.555C421.97 512.129 421.776 512.952 421.776 514.024ZM436.164 509.006C436.58 509.006 436.923 509.035 437.192 509.094L436.99 511.019C436.697 510.948 436.393 510.913 436.076 510.913C435.25 510.913 434.579 511.183 434.063 511.722C433.554 512.261 433.299 512.961 433.299 513.822V518.902H431.233V509.182H432.851L433.123 510.896H433.229C433.551 510.315 433.97 509.855 434.485 509.516C435.007 509.176 435.566 509.006 436.164 509.006ZM447.625 514.024C447.625 515.612 447.218 516.852 446.403 517.742C445.589 518.633 444.455 519.078 443.002 519.078C442.094 519.078 441.291 518.873 440.594 518.463C439.896 518.053 439.36 517.464 438.985 516.696C438.61 515.929 438.423 515.038 438.423 514.024C438.423 512.448 438.827 511.218 439.636 510.333C440.444 509.448 441.584 509.006 443.055 509.006C444.461 509.006 445.574 509.46 446.395 510.368C447.215 511.271 447.625 512.489 447.625 514.024ZM440.55 514.024C440.55 516.269 441.379 517.391 443.037 517.391C444.678 517.391 445.498 516.269 445.498 514.024C445.498 511.804 444.672 510.693 443.02 510.693C442.152 510.693 441.522 510.98 441.13 511.555C440.743 512.129 440.55 512.952 440.55 514.024ZM458.559 518.902H456.484V512.926C456.484 512.176 456.332 511.616 456.027 511.247C455.729 510.878 455.251 510.693 454.595 510.693C453.722 510.693 453.083 510.951 452.679 511.467C452.274 511.982 452.072 512.847 452.072 514.06V518.902H450.007V509.182H451.624L451.914 510.456H452.02C452.312 509.993 452.729 509.636 453.268 509.384C453.807 509.132 454.404 509.006 455.061 509.006C457.393 509.006 458.559 510.192 458.559 512.565V518.902ZM469.642 509.182V510.315L467.98 510.623C468.133 510.828 468.259 511.08 468.358 511.379C468.458 511.678 468.508 511.994 468.508 512.328C468.508 513.33 468.162 514.118 467.471 514.692C466.779 515.267 465.827 515.554 464.614 515.554C464.304 515.554 464.022 515.53 463.771 515.483C463.325 515.759 463.103 516.081 463.103 516.45C463.103 516.673 463.205 516.84 463.41 516.951C463.621 517.062 464.005 517.118 464.562 517.118H466.258C467.33 517.118 468.145 517.347 468.701 517.804C469.258 518.261 469.536 518.92 469.536 519.781C469.536 520.883 469.082 521.732 468.174 522.33C467.266 522.928 465.953 523.227 464.236 523.227C462.912 523.227 461.901 522.992 461.204 522.523C460.507 522.055 460.158 521.387 460.158 520.52C460.158 519.922 460.346 519.418 460.721 519.008C461.102 518.604 461.632 518.322 462.312 518.164C462.036 518.047 461.808 517.859 461.626 517.602C461.45 517.338 461.362 517.062 461.362 516.775C461.362 516.412 461.465 516.104 461.67 515.853C461.875 515.601 462.18 515.352 462.584 515.105C462.08 514.889 461.67 514.537 461.354 514.051C461.043 513.559 460.888 512.984 460.888 512.328C460.888 511.273 461.219 510.456 461.881 509.876C462.549 509.296 463.498 509.006 464.729 509.006C465.004 509.006 465.291 509.026 465.59 509.067C465.895 509.103 466.123 509.141 466.275 509.182H469.642ZM462.004 520.414C462.004 520.859 462.203 521.202 462.602 521.442C463.006 521.683 463.571 521.803 464.298 521.803C465.423 521.803 466.261 521.642 466.812 521.319C467.362 520.997 467.638 520.569 467.638 520.036C467.638 519.614 467.485 519.312 467.181 519.131C466.882 518.955 466.322 518.867 465.502 518.867H463.938C463.346 518.867 462.874 519.005 462.522 519.28C462.177 519.562 462.004 519.939 462.004 520.414ZM462.892 512.328C462.892 512.938 463.047 513.406 463.357 513.734C463.674 514.062 464.125 514.227 464.711 514.227C465.906 514.227 466.504 513.588 466.504 512.311C466.504 511.678 466.354 511.191 466.056 510.852C465.763 510.506 465.314 510.333 464.711 510.333C464.113 510.333 463.659 510.503 463.349 510.843C463.044 511.183 462.892 511.678 462.892 512.328ZM476.348 506.053H480.162C481.932 506.053 483.209 506.311 483.994 506.826C484.785 507.342 485.181 508.156 485.181 509.27C485.181 510.02 484.987 510.644 484.601 511.142C484.214 511.64 483.657 511.953 482.931 512.082V512.17C483.833 512.34 484.495 512.677 484.917 513.181C485.345 513.679 485.559 514.355 485.559 515.211C485.559 516.365 485.154 517.271 484.346 517.927C483.543 518.577 482.424 518.902 480.988 518.902H476.348V506.053ZM478.448 511.361H480.47C481.349 511.361 481.99 511.224 482.395 510.948C482.799 510.667 483.001 510.192 483.001 509.524C483.001 508.921 482.781 508.484 482.342 508.215C481.908 507.945 481.217 507.811 480.268 507.811H478.448V511.361ZM478.448 513.066V517.136H480.681C481.56 517.136 482.222 516.969 482.667 516.635C483.118 516.295 483.344 515.762 483.344 515.035C483.344 514.367 483.115 513.872 482.658 513.55C482.201 513.228 481.507 513.066 480.575 513.066H478.448ZM492.256 519.078C490.744 519.078 489.561 518.639 488.705 517.76C487.855 516.875 487.431 515.659 487.431 514.112C487.431 512.524 487.826 511.276 488.617 510.368C489.408 509.46 490.495 509.006 491.878 509.006C493.161 509.006 494.175 509.396 494.919 510.175C495.663 510.954 496.035 512.026 496.035 513.392V514.508H489.558C489.587 515.451 489.842 516.178 490.322 516.688C490.803 517.191 491.479 517.443 492.353 517.443C492.927 517.443 493.46 517.391 493.952 517.285C494.45 517.174 494.983 516.992 495.552 516.74V518.419C495.048 518.659 494.538 518.829 494.022 518.929C493.507 519.028 492.918 519.078 492.256 519.078ZM491.878 510.57C491.222 510.57 490.694 510.778 490.296 511.194C489.903 511.61 489.669 512.217 489.593 513.014H494.005C493.993 512.211 493.8 511.604 493.425 511.194C493.05 510.778 492.534 510.57 491.878 510.57ZM500.447 518.902H498.382V505.227H500.447V518.902ZM509.491 518.902L509.078 517.549H509.008C508.539 518.141 508.067 518.545 507.593 518.762C507.118 518.973 506.509 519.078 505.765 519.078C504.81 519.078 504.062 518.82 503.523 518.305C502.99 517.789 502.724 517.06 502.724 516.116C502.724 515.114 503.096 514.358 503.84 513.849C504.584 513.339 505.718 513.061 507.241 513.014L508.92 512.961V512.442C508.92 511.821 508.773 511.358 508.48 511.054C508.193 510.743 507.745 510.588 507.136 510.588C506.638 510.588 506.16 510.661 505.703 510.808C505.246 510.954 504.807 511.127 504.385 511.326L503.717 509.85C504.244 509.574 504.821 509.366 505.448 509.226C506.075 509.079 506.667 509.006 507.224 509.006C508.46 509.006 509.392 509.275 510.019 509.814C510.651 510.354 510.968 511.2 510.968 512.354V518.902H509.491ZM506.415 517.496C507.165 517.496 507.766 517.288 508.217 516.872C508.674 516.45 508.902 515.861 508.902 515.105V514.262L507.654 514.314C506.682 514.35 505.973 514.514 505.527 514.807C505.088 515.094 504.868 515.536 504.868 516.134C504.868 516.567 504.997 516.904 505.255 517.145C505.513 517.379 505.899 517.496 506.415 517.496ZM512.857 523.227C512.236 523.227 511.721 523.153 511.311 523.007V521.372C511.709 521.478 512.116 521.53 512.532 521.53C513.411 521.53 513.851 521.032 513.851 520.036V509.182H515.916V520.177C515.916 521.179 515.652 521.938 515.125 522.453C514.604 522.969 513.848 523.227 512.857 523.227ZM513.728 506.606C513.728 506.237 513.827 505.953 514.026 505.754C514.231 505.555 514.521 505.455 514.896 505.455C515.26 505.455 515.541 505.555 515.74 505.754C515.945 505.953 516.048 506.237 516.048 506.606C516.048 506.958 515.945 507.236 515.74 507.441C515.541 507.641 515.26 507.74 514.896 507.74C514.521 507.74 514.231 507.641 514.026 507.441C513.827 507.236 513.728 506.958 513.728 506.606ZM524.96 518.902L524.547 517.549H524.477C524.008 518.141 523.536 518.545 523.062 518.762C522.587 518.973 521.978 519.078 521.233 519.078C520.278 519.078 519.531 518.82 518.992 518.305C518.459 517.789 518.192 517.06 518.192 516.116C518.192 515.114 518.564 514.358 519.309 513.849C520.053 513.339 521.187 513.061 522.71 513.014L524.389 512.961V512.442C524.389 511.821 524.242 511.358 523.949 511.054C523.662 510.743 523.214 510.588 522.604 510.588C522.106 510.588 521.629 510.661 521.172 510.808C520.715 510.954 520.275 511.127 519.854 511.326L519.186 509.85C519.713 509.574 520.29 509.366 520.917 509.226C521.544 509.079 522.136 509.006 522.692 509.006C523.929 509.006 524.86 509.275 525.487 509.814C526.12 510.354 526.437 511.2 526.437 512.354V518.902H524.96ZM521.884 517.496C522.634 517.496 523.234 517.288 523.686 516.872C524.143 516.45 524.371 515.861 524.371 515.105V514.262L523.123 514.314C522.15 514.35 521.441 514.514 520.996 514.807C520.557 515.094 520.337 515.536 520.337 516.134C520.337 516.567 520.466 516.904 520.724 517.145C520.981 517.379 521.368 517.496 521.884 517.496ZM534.25 509.006C534.666 509.006 535.009 509.035 535.278 509.094L535.076 511.019C534.783 510.948 534.479 510.913 534.162 510.913C533.336 510.913 532.665 511.183 532.149 511.722C531.64 512.261 531.385 512.961 531.385 513.822V518.902H529.319V509.182H530.937L531.209 510.896H531.314C531.637 510.315 532.056 509.855 532.571 509.516C533.093 509.176 533.652 509.006 534.25 509.006ZM545.28 518.902H543.206V512.908C543.206 512.164 543.065 511.61 542.784 511.247C542.503 510.878 542.063 510.693 541.466 510.693C540.669 510.693 540.083 510.954 539.708 511.476C539.339 511.991 539.154 512.853 539.154 514.06V518.902H537.089V509.182H538.706L538.996 510.456H539.102C539.371 509.993 539.761 509.636 540.271 509.384C540.786 509.132 541.352 509.006 541.967 509.006C543.461 509.006 544.451 509.516 544.938 510.535H545.078C545.365 510.055 545.77 509.68 546.291 509.41C546.812 509.141 547.41 509.006 548.084 509.006C549.244 509.006 550.088 509.299 550.615 509.885C551.148 510.471 551.415 511.364 551.415 512.565V518.902H549.35V512.908C549.35 512.164 549.206 511.61 548.919 511.247C548.638 510.878 548.198 510.693 547.601 510.693C546.798 510.693 546.209 510.945 545.834 511.449C545.465 511.947 545.28 512.715 545.28 513.752V518.902ZM561.153 518.902L560.863 517.628H560.758C560.471 518.079 560.061 518.434 559.527 518.691C559 518.949 558.396 519.078 557.717 519.078C556.539 519.078 555.66 518.785 555.08 518.199C554.5 517.613 554.21 516.726 554.21 515.536V509.182H556.293V515.176C556.293 515.92 556.445 516.479 556.75 516.854C557.055 517.224 557.532 517.408 558.183 517.408C559.05 517.408 559.686 517.15 560.09 516.635C560.5 516.113 560.705 515.243 560.705 514.024V509.182H562.779V518.902H561.153ZM565.416 517.804C565.416 517.376 565.527 517.048 565.75 516.819C565.973 516.591 566.295 516.477 566.717 516.477C567.145 516.477 567.47 516.597 567.692 516.837C567.915 517.071 568.026 517.394 568.026 517.804C568.026 518.22 567.912 518.551 567.684 518.797C567.461 519.037 567.139 519.157 566.717 519.157C566.295 519.157 565.973 519.037 565.75 518.797C565.527 518.557 565.416 518.226 565.416 517.804Z" fill="#5E50A1"/>
<path d="M97.2656 568.172H95.9375V562.797H89.9219V568.172H88.5938V556.75H89.9219V561.609H95.9375V556.75H97.2656V568.172ZM105.477 568.172L105.219 566.953H105.156C104.729 567.49 104.302 567.854 103.875 568.047C103.453 568.234 102.924 568.328 102.289 568.328C101.44 568.328 100.773 568.109 100.289 567.672C99.8099 567.234 99.5703 566.612 99.5703 565.805C99.5703 564.076 100.953 563.169 103.719 563.086L105.172 563.039V562.508C105.172 561.836 105.026 561.341 104.734 561.023C104.448 560.701 103.987 560.539 103.352 560.539C102.638 560.539 101.831 560.758 100.93 561.195L100.531 560.203C100.953 559.974 101.414 559.794 101.914 559.664C102.419 559.534 102.924 559.469 103.43 559.469C104.451 559.469 105.206 559.695 105.695 560.148C106.19 560.602 106.438 561.328 106.438 562.328V568.172H105.477ZM102.547 567.258C103.354 567.258 103.987 567.036 104.445 566.594C104.909 566.151 105.141 565.531 105.141 564.734V563.961L103.844 564.016C102.812 564.052 102.068 564.214 101.609 564.5C101.156 564.781 100.93 565.221 100.93 565.82C100.93 566.289 101.07 566.646 101.352 566.891C101.638 567.135 102.036 567.258 102.547 567.258ZM114.945 567.023H114.875C114.276 567.893 113.38 568.328 112.188 568.328C111.068 568.328 110.195 567.945 109.57 567.18C108.951 566.414 108.641 565.326 108.641 563.914C108.641 562.503 108.953 561.406 109.578 560.625C110.203 559.844 111.073 559.453 112.188 559.453C113.349 559.453 114.24 559.875 114.859 560.719H114.961L114.906 560.102L114.875 559.5V556.016H116.172V568.172H115.117L114.945 567.023ZM112.352 567.242C113.237 567.242 113.878 567.003 114.273 566.523C114.674 566.039 114.875 565.26 114.875 564.188V563.914C114.875 562.701 114.672 561.836 114.266 561.32C113.865 560.799 113.221 560.539 112.336 560.539C111.576 560.539 110.992 560.836 110.586 561.43C110.185 562.018 109.984 562.852 109.984 563.93C109.984 565.023 110.185 565.849 110.586 566.406C110.987 566.964 111.576 567.242 112.352 567.242ZM120.227 568.172H118.93V559.609H120.227V568.172ZM118.82 557.289C118.82 556.992 118.893 556.776 119.039 556.641C119.185 556.5 119.367 556.43 119.586 556.43C119.794 556.43 119.974 556.5 120.125 556.641C120.276 556.781 120.352 556.997 120.352 557.289C120.352 557.581 120.276 557.799 120.125 557.945C119.974 558.086 119.794 558.156 119.586 558.156C119.367 558.156 119.185 558.086 119.039 557.945C118.893 557.799 118.82 557.581 118.82 557.289ZM126.883 559.453C127.263 559.453 127.604 559.484 127.906 559.547L127.727 560.75C127.372 560.672 127.06 560.633 126.789 560.633C126.096 560.633 125.503 560.914 125.008 561.477C124.518 562.039 124.273 562.74 124.273 563.578V568.172H122.977V559.609H124.047L124.195 561.195H124.258C124.576 560.638 124.958 560.208 125.406 559.906C125.854 559.604 126.346 559.453 126.883 559.453ZM135.367 568.172V562.633C135.367 561.935 135.208 561.414 134.891 561.07C134.573 560.727 134.076 560.555 133.398 560.555C132.503 560.555 131.846 560.797 131.43 561.281C131.013 561.766 130.805 562.565 130.805 563.68V568.172H129.508V559.609H130.562L130.773 560.781H130.836C131.102 560.359 131.474 560.034 131.953 559.805C132.432 559.57 132.966 559.453 133.555 559.453C134.586 559.453 135.362 559.703 135.883 560.203C136.404 560.698 136.664 561.492 136.664 562.586V568.172H135.367ZM137.977 559.609H139.367L141.242 564.492C141.654 565.607 141.909 566.411 142.008 566.906H142.07C142.138 566.641 142.279 566.188 142.492 565.547C142.711 564.901 143.419 562.922 144.617 559.609H146.008L142.328 569.359C141.964 570.323 141.536 571.005 141.047 571.406C140.562 571.812 139.966 572.016 139.258 572.016C138.862 572.016 138.471 571.971 138.086 571.883V570.844C138.372 570.906 138.693 570.938 139.047 570.938C139.938 570.938 140.573 570.438 140.953 569.438L141.43 568.219L137.977 559.609ZM152.664 568.172L152.406 566.953H152.344C151.917 567.49 151.49 567.854 151.062 568.047C150.641 568.234 150.112 568.328 149.477 568.328C148.628 568.328 147.961 568.109 147.477 567.672C146.997 567.234 146.758 566.612 146.758 565.805C146.758 564.076 148.141 563.169 150.906 563.086L152.359 563.039V562.508C152.359 561.836 152.214 561.341 151.922 561.023C151.635 560.701 151.174 560.539 150.539 560.539C149.826 560.539 149.018 560.758 148.117 561.195L147.719 560.203C148.141 559.974 148.602 559.794 149.102 559.664C149.607 559.534 150.112 559.469 150.617 559.469C151.638 559.469 152.393 559.695 152.883 560.148C153.378 560.602 153.625 561.328 153.625 562.328V568.172H152.664ZM149.734 567.258C150.542 567.258 151.174 567.036 151.633 566.594C152.096 566.151 152.328 565.531 152.328 564.734V563.961L151.031 564.016C150 564.052 149.255 564.214 148.797 564.5C148.344 564.781 148.117 565.221 148.117 565.82C148.117 566.289 148.258 566.646 148.539 566.891C148.826 567.135 149.224 567.258 149.734 567.258ZM171.375 568.172V562.602C171.375 561.919 171.229 561.409 170.938 561.07C170.646 560.727 170.193 560.555 169.578 560.555C168.771 560.555 168.174 560.786 167.789 561.25C167.404 561.714 167.211 562.427 167.211 563.391V568.172H165.914V562.602C165.914 561.919 165.768 561.409 165.477 561.07C165.185 560.727 164.729 560.555 164.109 560.555C163.297 560.555 162.701 560.799 162.32 561.289C161.945 561.773 161.758 562.57 161.758 563.68V568.172H160.461V559.609H161.516L161.727 560.781H161.789C162.034 560.365 162.378 560.039 162.82 559.805C163.268 559.57 163.768 559.453 164.32 559.453C165.659 559.453 166.534 559.938 166.945 560.906H167.008C167.263 560.458 167.633 560.104 168.117 559.844C168.602 559.583 169.154 559.453 169.773 559.453C170.742 559.453 171.466 559.703 171.945 560.203C172.43 560.698 172.672 561.492 172.672 562.586V568.172H171.375ZM178.969 568.328C177.703 568.328 176.703 567.943 175.969 567.172C175.24 566.401 174.875 565.331 174.875 563.961C174.875 562.581 175.214 561.484 175.891 560.672C176.573 559.859 177.487 559.453 178.633 559.453C179.706 559.453 180.555 559.807 181.18 560.516C181.805 561.219 182.117 562.148 182.117 563.305V564.125H176.219C176.245 565.13 176.497 565.893 176.977 566.414C177.461 566.935 178.141 567.195 179.016 567.195C179.938 567.195 180.849 567.003 181.75 566.617V567.773C181.292 567.971 180.857 568.112 180.445 568.195C180.039 568.284 179.547 568.328 178.969 568.328ZM178.617 560.539C177.93 560.539 177.38 560.763 176.969 561.211C176.562 561.659 176.323 562.279 176.25 563.07H180.727C180.727 562.253 180.544 561.628 180.18 561.195C179.815 560.758 179.294 560.539 178.617 560.539ZM190.195 568.172V562.633C190.195 561.935 190.036 561.414 189.719 561.07C189.401 560.727 188.904 560.555 188.227 560.555C187.331 560.555 186.674 560.797 186.258 561.281C185.841 561.766 185.633 562.565 185.633 563.68V568.172H184.336V559.609H185.391L185.602 560.781H185.664C185.93 560.359 186.302 560.034 186.781 559.805C187.26 559.57 187.794 559.453 188.383 559.453C189.414 559.453 190.19 559.703 190.711 560.203C191.232 560.698 191.492 561.492 191.492 562.586V568.172H190.195ZM196.93 567.258C197.159 567.258 197.38 567.242 197.594 567.211C197.807 567.174 197.977 567.138 198.102 567.102V568.094C197.961 568.161 197.753 568.216 197.477 568.258C197.206 568.305 196.961 568.328 196.742 568.328C195.086 568.328 194.258 567.456 194.258 565.711V560.617H193.031V559.992L194.258 559.453L194.805 557.625H195.555V559.609H198.039V560.617H195.555V565.656C195.555 566.172 195.677 566.568 195.922 566.844C196.167 567.12 196.503 567.258 196.93 567.258ZM207.211 563.883C207.211 565.279 206.859 566.37 206.156 567.156C205.453 567.938 204.482 568.328 203.242 568.328C202.477 568.328 201.797 568.148 201.203 567.789C200.609 567.43 200.151 566.914 199.828 566.242C199.505 565.57 199.344 564.784 199.344 563.883C199.344 562.487 199.693 561.401 200.391 560.625C201.089 559.844 202.057 559.453 203.297 559.453C204.495 559.453 205.445 559.852 206.148 560.648C206.857 561.445 207.211 562.523 207.211 563.883ZM200.688 563.883C200.688 564.977 200.906 565.81 201.344 566.383C201.781 566.956 202.424 567.242 203.273 567.242C204.122 567.242 204.766 566.958 205.203 566.391C205.646 565.818 205.867 564.982 205.867 563.883C205.867 562.794 205.646 561.969 205.203 561.406C204.766 560.839 204.117 560.555 203.258 560.555C202.409 560.555 201.768 560.833 201.336 561.391C200.904 561.948 200.688 562.779 200.688 563.883ZM213.398 559.453C213.779 559.453 214.12 559.484 214.422 559.547L214.242 560.75C213.888 560.672 213.576 560.633 213.305 560.633C212.612 560.633 212.018 560.914 211.523 561.477C211.034 562.039 210.789 562.74 210.789 563.578V568.172H209.492V559.609H210.562L210.711 561.195H210.773C211.091 560.638 211.474 560.208 211.922 559.906C212.37 559.604 212.862 559.453 213.398 559.453ZM221.398 559.609V565.164C221.398 565.862 221.557 566.383 221.875 566.727C222.193 567.07 222.69 567.242 223.367 567.242C224.263 567.242 224.917 566.997 225.328 566.508C225.745 566.018 225.953 565.219 225.953 564.109V559.609H227.25V568.172H226.18L225.992 567.023H225.922C225.656 567.445 225.286 567.768 224.812 567.992C224.344 568.216 223.807 568.328 223.203 568.328C222.161 568.328 221.38 568.081 220.859 567.586C220.344 567.091 220.086 566.299 220.086 565.211V559.609H221.398ZM235.867 568.172V562.633C235.867 561.935 235.708 561.414 235.391 561.07C235.073 560.727 234.576 560.555 233.898 560.555C233.003 560.555 232.346 560.797 231.93 561.281C231.513 561.766 231.305 562.565 231.305 563.68V568.172H230.008V559.609H231.062L231.273 560.781H231.336C231.602 560.359 231.974 560.034 232.453 559.805C232.932 559.57 233.466 559.453 234.055 559.453C235.086 559.453 235.862 559.703 236.383 560.203C236.904 560.698 237.164 561.492 237.164 562.586V568.172H235.867ZM242.602 567.258C242.831 567.258 243.052 567.242 243.266 567.211C243.479 567.174 243.648 567.138 243.773 567.102V568.094C243.633 568.161 243.424 568.216 243.148 568.258C242.878 568.305 242.633 568.328 242.414 568.328C240.758 568.328 239.93 567.456 239.93 565.711V560.617H238.703V559.992L239.93 559.453L240.477 557.625H241.227V559.609H243.711V560.617H241.227V565.656C241.227 566.172 241.349 566.568 241.594 566.844C241.839 567.12 242.174 567.258 242.602 567.258ZM246.711 559.609V565.164C246.711 565.862 246.87 566.383 247.188 566.727C247.505 567.07 248.003 567.242 248.68 567.242C249.576 567.242 250.229 566.997 250.641 566.508C251.057 566.018 251.266 565.219 251.266 564.109V559.609H252.562V568.172H251.492L251.305 567.023H251.234C250.969 567.445 250.599 567.768 250.125 567.992C249.656 568.216 249.12 568.328 248.516 568.328C247.474 568.328 246.693 568.081 246.172 567.586C245.656 567.091 245.398 566.299 245.398 565.211V559.609H246.711ZM256.602 563.789C256.826 563.471 257.167 563.055 257.625 562.539L260.391 559.609H261.93L258.461 563.258L262.172 568.172H260.602L257.578 564.125L256.602 564.969V568.172H255.32V556.016H256.602V562.461C256.602 562.747 256.581 563.19 256.539 563.789H256.602ZM278.797 568.172V562.602C278.797 561.919 278.651 561.409 278.359 561.07C278.068 560.727 277.615 560.555 277 560.555C276.193 560.555 275.596 560.786 275.211 561.25C274.826 561.714 274.633 562.427 274.633 563.391V568.172H273.336V562.602C273.336 561.919 273.19 561.409 272.898 561.07C272.607 560.727 272.151 560.555 271.531 560.555C270.719 560.555 270.122 560.799 269.742 561.289C269.367 561.773 269.18 562.57 269.18 563.68V568.172H267.883V559.609H268.938L269.148 560.781H269.211C269.456 560.365 269.799 560.039 270.242 559.805C270.69 559.57 271.19 559.453 271.742 559.453C273.081 559.453 273.956 559.938 274.367 560.906H274.43C274.685 560.458 275.055 560.104 275.539 559.844C276.023 559.583 276.576 559.453 277.195 559.453C278.164 559.453 278.888 559.703 279.367 560.203C279.852 560.698 280.094 561.492 280.094 562.586V568.172H278.797ZM286.391 568.328C285.125 568.328 284.125 567.943 283.391 567.172C282.661 566.401 282.297 565.331 282.297 563.961C282.297 562.581 282.635 561.484 283.312 560.672C283.995 559.859 284.909 559.453 286.055 559.453C287.128 559.453 287.977 559.807 288.602 560.516C289.227 561.219 289.539 562.148 289.539 563.305V564.125H283.641C283.667 565.13 283.919 565.893 284.398 566.414C284.883 566.935 285.562 567.195 286.438 567.195C287.359 567.195 288.271 567.003 289.172 566.617V567.773C288.714 567.971 288.279 568.112 287.867 568.195C287.461 568.284 286.969 568.328 286.391 568.328ZM286.039 560.539C285.352 560.539 284.802 560.763 284.391 561.211C283.984 561.659 283.745 562.279 283.672 563.07H288.148C288.148 562.253 287.966 561.628 287.602 561.195C287.237 560.758 286.716 560.539 286.039 560.539ZM302.672 568.172V562.602C302.672 561.919 302.526 561.409 302.234 561.07C301.943 560.727 301.49 560.555 300.875 560.555C300.068 560.555 299.471 560.786 299.086 561.25C298.701 561.714 298.508 562.427 298.508 563.391V568.172H297.211V562.602C297.211 561.919 297.065 561.409 296.773 561.07C296.482 560.727 296.026 560.555 295.406 560.555C294.594 560.555 293.997 560.799 293.617 561.289C293.242 561.773 293.055 562.57 293.055 563.68V568.172H291.758V559.609H292.812L293.023 560.781H293.086C293.331 560.365 293.674 560.039 294.117 559.805C294.565 559.57 295.065 559.453 295.617 559.453C296.956 559.453 297.831 559.938 298.242 560.906H298.305C298.56 560.458 298.93 560.104 299.414 559.844C299.898 559.583 300.451 559.453 301.07 559.453C302.039 559.453 302.763 559.703 303.242 560.203C303.727 560.698 303.969 561.492 303.969 562.586V568.172H302.672ZM310.633 559.469C311.758 559.469 312.63 559.854 313.25 560.625C313.875 561.391 314.188 562.477 314.188 563.883C314.188 565.289 313.872 566.383 313.242 567.164C312.617 567.94 311.747 568.328 310.633 568.328C310.076 568.328 309.565 568.227 309.102 568.023C308.643 567.815 308.258 567.497 307.945 567.07H307.852L307.578 568.172H306.648V556.016H307.945V558.969C307.945 559.63 307.924 560.224 307.883 560.75H307.945C308.549 559.896 309.445 559.469 310.633 559.469ZM310.445 560.555C309.56 560.555 308.922 560.81 308.531 561.32C308.141 561.826 307.945 562.68 307.945 563.883C307.945 565.086 308.146 565.948 308.547 566.469C308.948 566.984 309.591 567.242 310.477 567.242C311.273 567.242 311.867 566.953 312.258 566.375C312.648 565.792 312.844 564.956 312.844 563.867C312.844 562.753 312.648 561.922 312.258 561.375C311.867 560.828 311.263 560.555 310.445 560.555ZM321.727 568.172L321.469 566.953H321.406C320.979 567.49 320.552 567.854 320.125 568.047C319.703 568.234 319.174 568.328 318.539 568.328C317.69 568.328 317.023 568.109 316.539 567.672C316.06 567.234 315.82 566.612 315.82 565.805C315.82 564.076 317.203 563.169 319.969 563.086L321.422 563.039V562.508C321.422 561.836 321.276 561.341 320.984 561.023C320.698 560.701 320.237 560.539 319.602 560.539C318.888 560.539 318.081 560.758 317.18 561.195L316.781 560.203C317.203 559.974 317.664 559.794 318.164 559.664C318.669 559.534 319.174 559.469 319.68 559.469C320.701 559.469 321.456 559.695 321.945 560.148C322.44 560.602 322.688 561.328 322.688 562.328V568.172H321.727ZM318.797 567.258C319.604 567.258 320.237 567.036 320.695 566.594C321.159 566.151 321.391 565.531 321.391 564.734V563.961L320.094 564.016C319.062 564.052 318.318 564.214 317.859 564.5C317.406 564.781 317.18 565.221 317.18 565.82C317.18 566.289 317.32 566.646 317.602 566.891C317.888 567.135 318.286 567.258 318.797 567.258ZM331.227 568.172V562.633C331.227 561.935 331.068 561.414 330.75 561.07C330.432 560.727 329.935 560.555 329.258 560.555C328.362 560.555 327.706 560.797 327.289 561.281C326.872 561.766 326.664 562.565 326.664 563.68V568.172H325.367V559.609H326.422L326.633 560.781H326.695C326.961 560.359 327.333 560.034 327.812 559.805C328.292 559.57 328.826 559.453 329.414 559.453C330.445 559.453 331.221 559.703 331.742 560.203C332.263 560.698 332.523 561.492 332.523 562.586V568.172H331.227ZM337.961 567.258C338.19 567.258 338.411 567.242 338.625 567.211C338.839 567.174 339.008 567.138 339.133 567.102V568.094C338.992 568.161 338.784 568.216 338.508 568.258C338.237 568.305 337.992 568.328 337.773 568.328C336.117 568.328 335.289 567.456 335.289 565.711V560.617H334.062V559.992L335.289 559.453L335.836 557.625H336.586V559.609H339.07V560.617H336.586V565.656C336.586 566.172 336.708 566.568 336.953 566.844C337.198 567.12 337.534 567.258 337.961 567.258ZM342.07 559.609V565.164C342.07 565.862 342.229 566.383 342.547 566.727C342.865 567.07 343.362 567.242 344.039 567.242C344.935 567.242 345.589 566.997 346 566.508C346.417 566.018 346.625 565.219 346.625 564.109V559.609H347.922V568.172H346.852L346.664 567.023H346.594C346.328 567.445 345.958 567.768 345.484 567.992C345.016 568.216 344.479 568.328 343.875 568.328C342.833 568.328 342.052 568.081 341.531 567.586C341.016 567.091 340.758 566.299 340.758 565.211V559.609H342.07ZM356.117 563.789C356.341 563.471 356.682 563.055 357.141 562.539L359.906 559.609H361.445L357.977 563.258L361.688 568.172H360.117L357.094 564.125L356.117 564.969V568.172H354.836V556.016H356.117V562.461C356.117 562.747 356.096 563.19 356.055 563.789H356.117ZM368.508 568.172L368.25 566.953H368.188C367.76 567.49 367.333 567.854 366.906 568.047C366.484 568.234 365.956 568.328 365.32 568.328C364.471 568.328 363.805 568.109 363.32 567.672C362.841 567.234 362.602 566.612 362.602 565.805C362.602 564.076 363.984 563.169 366.75 563.086L368.203 563.039V562.508C368.203 561.836 368.057 561.341 367.766 561.023C367.479 560.701 367.018 560.539 366.383 560.539C365.669 560.539 364.862 560.758 363.961 561.195L363.562 560.203C363.984 559.974 364.445 559.794 364.945 559.664C365.451 559.534 365.956 559.469 366.461 559.469C367.482 559.469 368.237 559.695 368.727 560.148C369.221 560.602 369.469 561.328 369.469 562.328V568.172H368.508ZM365.578 567.258C366.385 567.258 367.018 567.036 367.477 566.594C367.94 566.151 368.172 565.531 368.172 564.734V563.961L366.875 564.016C365.844 564.052 365.099 564.214 364.641 564.5C364.188 564.781 363.961 565.221 363.961 565.82C363.961 566.289 364.102 566.646 364.383 566.891C364.669 567.135 365.068 567.258 365.578 567.258ZM383.062 568.172V562.602C383.062 561.919 382.917 561.409 382.625 561.07C382.333 560.727 381.88 560.555 381.266 560.555C380.458 560.555 379.862 560.786 379.477 561.25C379.091 561.714 378.898 562.427 378.898 563.391V568.172H377.602V562.602C377.602 561.919 377.456 561.409 377.164 561.07C376.872 560.727 376.417 560.555 375.797 560.555C374.984 560.555 374.388 560.799 374.008 561.289C373.633 561.773 373.445 562.57 373.445 563.68V568.172H372.148V559.609H373.203L373.414 560.781H373.477C373.721 560.365 374.065 560.039 374.508 559.805C374.956 559.57 375.456 559.453 376.008 559.453C377.346 559.453 378.221 559.938 378.633 560.906H378.695C378.951 560.458 379.32 560.104 379.805 559.844C380.289 559.583 380.841 559.453 381.461 559.453C382.43 559.453 383.154 559.703 383.633 560.203C384.117 560.698 384.359 561.492 384.359 562.586V568.172H383.062ZM388.258 559.609V565.164C388.258 565.862 388.417 566.383 388.734 566.727C389.052 567.07 389.549 567.242 390.227 567.242C391.122 567.242 391.776 566.997 392.188 566.508C392.604 566.018 392.812 565.219 392.812 564.109V559.609H394.109V568.172H393.039L392.852 567.023H392.781C392.516 567.445 392.146 567.768 391.672 567.992C391.203 568.216 390.667 568.328 390.062 568.328C389.021 568.328 388.24 568.081 387.719 567.586C387.203 567.091 386.945 566.299 386.945 565.211V559.609H388.258ZM402.32 568.172H401.023V556.016H402.32V568.172ZM408.688 568.328C407.422 568.328 406.422 567.943 405.688 567.172C404.958 566.401 404.594 565.331 404.594 563.961C404.594 562.581 404.932 561.484 405.609 560.672C406.292 559.859 407.206 559.453 408.352 559.453C409.424 559.453 410.273 559.807 410.898 560.516C411.523 561.219 411.836 562.148 411.836 563.305V564.125H405.938C405.964 565.13 406.216 565.893 406.695 566.414C407.18 566.935 407.859 567.195 408.734 567.195C409.656 567.195 410.568 567.003 411.469 566.617V567.773C411.01 567.971 410.576 568.112 410.164 568.195C409.758 568.284 409.266 568.328 408.688 568.328ZM408.336 560.539C407.648 560.539 407.099 560.763 406.688 561.211C406.281 561.659 406.042 562.279 405.969 563.07H410.445C410.445 562.253 410.263 561.628 409.898 561.195C409.534 560.758 409.013 560.539 408.336 560.539ZM418.039 559.469C419.164 559.469 420.036 559.854 420.656 560.625C421.281 561.391 421.594 562.477 421.594 563.883C421.594 565.289 421.279 566.383 420.648 567.164C420.023 567.94 419.154 568.328 418.039 568.328C417.482 568.328 416.971 568.227 416.508 568.023C416.049 567.815 415.664 567.497 415.352 567.07H415.258L414.984 568.172H414.055V556.016H415.352V558.969C415.352 559.63 415.331 560.224 415.289 560.75H415.352C415.956 559.896 416.852 559.469 418.039 559.469ZM417.852 560.555C416.966 560.555 416.328 560.81 415.938 561.32C415.547 561.826 415.352 562.68 415.352 563.883C415.352 565.086 415.552 565.948 415.953 566.469C416.354 566.984 416.997 567.242 417.883 567.242C418.68 567.242 419.273 566.953 419.664 566.375C420.055 565.792 420.25 564.956 420.25 563.867C420.25 562.753 420.055 561.922 419.664 561.375C419.273 560.828 418.669 560.555 417.852 560.555ZM425.164 568.172H423.867V559.609H425.164V568.172ZM423.758 557.289C423.758 556.992 423.831 556.776 423.977 556.641C424.122 556.5 424.305 556.43 424.523 556.43C424.732 556.43 424.911 556.5 425.062 556.641C425.214 556.781 425.289 556.997 425.289 557.289C425.289 557.581 425.214 557.799 425.062 557.945C424.911 558.086 424.732 558.156 424.523 558.156C424.305 558.156 424.122 558.086 423.977 557.945C423.831 557.799 423.758 557.581 423.758 557.289ZM433.773 568.172V562.633C433.773 561.935 433.615 561.414 433.297 561.07C432.979 560.727 432.482 560.555 431.805 560.555C430.904 560.555 430.245 560.799 429.828 561.289C429.417 561.779 429.211 562.581 429.211 563.695V568.172H427.914V556.016H429.211V559.695C429.211 560.138 429.19 560.505 429.148 560.797H429.227C429.482 560.385 429.844 560.062 430.312 559.828C430.786 559.589 431.326 559.469 431.93 559.469C432.977 559.469 433.76 559.719 434.281 560.219C434.807 560.714 435.07 561.503 435.07 562.586V568.172H433.773ZM452.812 568.172V562.602C452.812 561.919 452.667 561.409 452.375 561.07C452.083 560.727 451.63 560.555 451.016 560.555C450.208 560.555 449.612 560.786 449.227 561.25C448.841 561.714 448.648 562.427 448.648 563.391V568.172H447.352V562.602C447.352 561.919 447.206 561.409 446.914 561.07C446.622 560.727 446.167 560.555 445.547 560.555C444.734 560.555 444.138 560.799 443.758 561.289C443.383 561.773 443.195 562.57 443.195 563.68V568.172H441.898V559.609H442.953L443.164 560.781H443.227C443.471 560.365 443.815 560.039 444.258 559.805C444.706 559.57 445.206 559.453 445.758 559.453C447.096 559.453 447.971 559.938 448.383 560.906H448.445C448.701 560.458 449.07 560.104 449.555 559.844C450.039 559.583 450.591 559.453 451.211 559.453C452.18 559.453 452.904 559.703 453.383 560.203C453.867 560.698 454.109 561.492 454.109 562.586V568.172H452.812ZM462.055 568.172L461.797 566.953H461.734C461.307 567.49 460.88 567.854 460.453 568.047C460.031 568.234 459.503 568.328 458.867 568.328C458.018 568.328 457.352 568.109 456.867 567.672C456.388 567.234 456.148 566.612 456.148 565.805C456.148 564.076 457.531 563.169 460.297 563.086L461.75 563.039V562.508C461.75 561.836 461.604 561.341 461.312 561.023C461.026 560.701 460.565 560.539 459.93 560.539C459.216 560.539 458.409 560.758 457.508 561.195L457.109 560.203C457.531 559.974 457.992 559.794 458.492 559.664C458.997 559.534 459.503 559.469 460.008 559.469C461.029 559.469 461.784 559.695 462.273 560.148C462.768 560.602 463.016 561.328 463.016 562.328V568.172H462.055ZM459.125 567.258C459.932 567.258 460.565 567.036 461.023 566.594C461.487 566.151 461.719 565.531 461.719 564.734V563.961L460.422 564.016C459.391 564.052 458.646 564.214 458.188 564.5C457.734 564.781 457.508 565.221 457.508 565.82C457.508 566.289 457.648 566.646 457.93 566.891C458.216 567.135 458.615 567.258 459.125 567.258ZM466.977 563.789C467.201 563.471 467.542 563.055 468 562.539L470.766 559.609H472.305L468.836 563.258L472.547 568.172H470.977L467.953 564.125L466.977 564.969V568.172H465.695V556.016H466.977V562.461C466.977 562.747 466.956 563.19 466.914 563.789H466.977ZM479.625 565.836C479.625 566.633 479.328 567.247 478.734 567.68C478.141 568.112 477.307 568.328 476.234 568.328C475.099 568.328 474.214 568.148 473.578 567.789V566.586C473.99 566.794 474.43 566.958 474.898 567.078C475.372 567.198 475.828 567.258 476.266 567.258C476.943 567.258 477.464 567.151 477.828 566.938C478.193 566.719 478.375 566.388 478.375 565.945C478.375 565.612 478.229 565.328 477.938 565.094C477.651 564.854 477.089 564.573 476.25 564.25C475.453 563.953 474.885 563.695 474.547 563.477C474.214 563.253 473.964 563 473.797 562.719C473.635 562.438 473.555 562.102 473.555 561.711C473.555 561.013 473.839 560.464 474.406 560.062C474.974 559.656 475.753 559.453 476.742 559.453C477.664 559.453 478.565 559.641 479.445 560.016L478.984 561.07C478.125 560.716 477.346 560.539 476.648 560.539C476.034 560.539 475.57 560.635 475.258 560.828C474.945 561.021 474.789 561.286 474.789 561.625C474.789 561.854 474.846 562.049 474.961 562.211C475.081 562.372 475.271 562.526 475.531 562.672C475.792 562.818 476.292 563.029 477.031 563.305C478.047 563.674 478.732 564.047 479.086 564.422C479.445 564.797 479.625 565.268 479.625 565.836ZM483.039 568.172H481.742V559.609H483.039V568.172ZM481.633 557.289C481.633 556.992 481.706 556.776 481.852 556.641C481.997 556.5 482.18 556.43 482.398 556.43C482.607 556.43 482.786 556.5 482.938 556.641C483.089 556.781 483.164 556.997 483.164 557.289C483.164 557.581 483.089 557.799 482.938 557.945C482.786 558.086 482.607 558.156 482.398 558.156C482.18 558.156 481.997 558.086 481.852 557.945C481.706 557.799 481.633 557.581 481.633 557.289ZM496.703 568.172V562.602C496.703 561.919 496.557 561.409 496.266 561.07C495.974 560.727 495.521 560.555 494.906 560.555C494.099 560.555 493.503 560.786 493.117 561.25C492.732 561.714 492.539 562.427 492.539 563.391V568.172H491.242V562.602C491.242 561.919 491.096 561.409 490.805 561.07C490.513 560.727 490.057 560.555 489.438 560.555C488.625 560.555 488.029 560.799 487.648 561.289C487.273 561.773 487.086 562.57 487.086 563.68V568.172H485.789V559.609H486.844L487.055 560.781H487.117C487.362 560.365 487.706 560.039 488.148 559.805C488.596 559.57 489.096 559.453 489.648 559.453C490.987 559.453 491.862 559.938 492.273 560.906H492.336C492.591 560.458 492.961 560.104 493.445 559.844C493.93 559.583 494.482 559.453 495.102 559.453C496.07 559.453 496.794 559.703 497.273 560.203C497.758 560.698 498 561.492 498 562.586V568.172H496.703ZM505.945 568.172L505.688 566.953H505.625C505.198 567.49 504.771 567.854 504.344 568.047C503.922 568.234 503.393 568.328 502.758 568.328C501.909 568.328 501.242 568.109 500.758 567.672C500.279 567.234 500.039 566.612 500.039 565.805C500.039 564.076 501.422 563.169 504.188 563.086L505.641 563.039V562.508C505.641 561.836 505.495 561.341 505.203 561.023C504.917 560.701 504.456 560.539 503.82 560.539C503.107 560.539 502.299 560.758 501.398 561.195L501 560.203C501.422 559.974 501.883 559.794 502.383 559.664C502.888 559.534 503.393 559.469 503.898 559.469C504.919 559.469 505.674 559.695 506.164 560.148C506.659 560.602 506.906 561.328 506.906 562.328V568.172H505.945ZM503.016 567.258C503.823 567.258 504.456 567.036 504.914 566.594C505.378 566.151 505.609 565.531 505.609 564.734V563.961L504.312 564.016C503.281 564.052 502.536 564.214 502.078 564.5C501.625 564.781 501.398 565.221 501.398 565.82C501.398 566.289 501.539 566.646 501.82 566.891C502.107 567.135 502.505 567.258 503.016 567.258ZM510.883 568.172H509.586V556.016H510.883V568.172ZM523.617 567.023H523.547C522.948 567.893 522.052 568.328 520.859 568.328C519.74 568.328 518.867 567.945 518.242 567.18C517.622 566.414 517.312 565.326 517.312 563.914C517.312 562.503 517.625 561.406 518.25 560.625C518.875 559.844 519.745 559.453 520.859 559.453C522.021 559.453 522.911 559.875 523.531 560.719H523.633L523.578 560.102L523.547 559.5V556.016H524.844V568.172H523.789L523.617 567.023ZM521.023 567.242C521.909 567.242 522.549 567.003 522.945 566.523C523.346 566.039 523.547 565.26 523.547 564.188V563.914C523.547 562.701 523.344 561.836 522.938 561.32C522.536 560.799 521.893 560.539 521.008 560.539C520.247 560.539 519.664 560.836 519.258 561.43C518.857 562.018 518.656 562.852 518.656 563.93C518.656 565.023 518.857 565.849 519.258 566.406C519.659 566.964 520.247 567.242 521.023 567.242ZM532.867 568.172L532.609 566.953H532.547C532.12 567.49 531.693 567.854 531.266 568.047C530.844 568.234 530.315 568.328 529.68 568.328C528.831 568.328 528.164 568.109 527.68 567.672C527.201 567.234 526.961 566.612 526.961 565.805C526.961 564.076 528.344 563.169 531.109 563.086L532.562 563.039V562.508C532.562 561.836 532.417 561.341 532.125 561.023C531.839 560.701 531.378 560.539 530.742 560.539C530.029 560.539 529.221 560.758 528.32 561.195L527.922 560.203C528.344 559.974 528.805 559.794 529.305 559.664C529.81 559.534 530.315 559.469 530.82 559.469C531.841 559.469 532.596 559.695 533.086 560.148C533.581 560.602 533.828 561.328 533.828 562.328V568.172H532.867ZM529.938 567.258C530.745 567.258 531.378 567.036 531.836 566.594C532.299 566.151 532.531 565.531 532.531 564.734V563.961L531.234 564.016C530.203 564.052 529.458 564.214 529 564.5C528.547 564.781 528.32 565.221 528.32 565.82C528.32 566.289 528.461 566.646 528.742 566.891C529.029 567.135 529.427 567.258 529.938 567.258ZM537.805 568.172H536.508V556.016H537.805V568.172ZM545.82 568.172L545.562 566.953H545.5C545.073 567.49 544.646 567.854 544.219 568.047C543.797 568.234 543.268 568.328 542.633 568.328C541.784 568.328 541.117 568.109 540.633 567.672C540.154 567.234 539.914 566.612 539.914 565.805C539.914 564.076 541.297 563.169 544.062 563.086L545.516 563.039V562.508C545.516 561.836 545.37 561.341 545.078 561.023C544.792 560.701 544.331 560.539 543.695 560.539C542.982 560.539 542.174 560.758 541.273 561.195L540.875 560.203C541.297 559.974 541.758 559.794 542.258 559.664C542.763 559.534 543.268 559.469 543.773 559.469C544.794 559.469 545.549 559.695 546.039 560.148C546.534 560.602 546.781 561.328 546.781 562.328V568.172H545.82ZM542.891 567.258C543.698 567.258 544.331 567.036 544.789 566.594C545.253 566.151 545.484 565.531 545.484 564.734V563.961L544.188 564.016C543.156 564.052 542.411 564.214 541.953 564.5C541.5 564.781 541.273 565.221 541.273 565.82C541.273 566.289 541.414 566.646 541.695 566.891C541.982 567.135 542.38 567.258 542.891 567.258ZM560.375 568.172V562.602C560.375 561.919 560.229 561.409 559.938 561.07C559.646 560.727 559.193 560.555 558.578 560.555C557.771 560.555 557.174 560.786 556.789 561.25C556.404 561.714 556.211 562.427 556.211 563.391V568.172H554.914V562.602C554.914 561.919 554.768 561.409 554.477 561.07C554.185 560.727 553.729 560.555 553.109 560.555C552.297 560.555 551.701 560.799 551.32 561.289C550.945 561.773 550.758 562.57 550.758 563.68V568.172H549.461V559.609H550.516L550.727 560.781H550.789C551.034 560.365 551.378 560.039 551.82 559.805C552.268 559.57 552.768 559.453 553.32 559.453C554.659 559.453 555.534 559.938 555.945 560.906H556.008C556.263 560.458 556.633 560.104 557.117 559.844C557.602 559.583 558.154 559.453 558.773 559.453C559.742 559.453 560.466 559.703 560.945 560.203C561.43 560.698 561.672 561.492 561.672 562.586V568.172H560.375ZM93.2891 592.328C92.7318 592.328 92.2214 592.227 91.7578 592.023C91.2995 591.815 90.9141 591.497 90.6016 591.07H90.5078C90.5703 591.57 90.6016 592.044 90.6016 592.492V596.016H89.3047V583.609H90.3594L90.5391 584.781H90.6016C90.9349 584.312 91.3229 583.974 91.7656 583.766C92.2083 583.557 92.7161 583.453 93.2891 583.453C94.4245 583.453 95.2995 583.841 95.9141 584.617C96.5339 585.393 96.8438 586.482 96.8438 587.883C96.8438 589.289 96.5286 590.383 95.8984 591.164C95.2734 591.94 94.4036 592.328 93.2891 592.328ZM93.1016 584.555C92.2266 584.555 91.5938 584.797 91.2031 585.281C90.8125 585.766 90.612 586.536 90.6016 587.594V587.883C90.6016 589.086 90.8021 589.948 91.2031 590.469C91.6042 590.984 92.2474 591.242 93.1328 591.242C93.8724 591.242 94.4505 590.943 94.8672 590.344C95.2891 589.745 95.5 588.919 95.5 587.867C95.5 586.799 95.2891 585.982 94.8672 585.414C94.4505 584.841 93.862 584.555 93.1016 584.555ZM103.023 583.453C103.404 583.453 103.745 583.484 104.047 583.547L103.867 584.75C103.513 584.672 103.201 584.633 102.93 584.633C102.237 584.633 101.643 584.914 101.148 585.477C100.659 586.039 100.414 586.74 100.414 587.578V592.172H99.1172V583.609H100.188L100.336 585.195H100.398C100.716 584.638 101.099 584.208 101.547 583.906C101.995 583.604 102.487 583.453 103.023 583.453ZM113.039 587.883C113.039 589.279 112.688 590.37 111.984 591.156C111.281 591.938 110.31 592.328 109.07 592.328C108.305 592.328 107.625 592.148 107.031 591.789C106.438 591.43 105.979 590.914 105.656 590.242C105.333 589.57 105.172 588.784 105.172 587.883C105.172 586.487 105.521 585.401 106.219 584.625C106.917 583.844 107.885 583.453 109.125 583.453C110.323 583.453 111.273 583.852 111.977 584.648C112.685 585.445 113.039 586.523 113.039 587.883ZM106.516 587.883C106.516 588.977 106.734 589.81 107.172 590.383C107.609 590.956 108.253 591.242 109.102 591.242C109.951 591.242 110.594 590.958 111.031 590.391C111.474 589.818 111.695 588.982 111.695 587.883C111.695 586.794 111.474 585.969 111.031 585.406C110.594 584.839 109.945 584.555 109.086 584.555C108.237 584.555 107.596 584.833 107.164 585.391C106.732 585.948 106.516 586.779 106.516 587.883ZM120.844 589.836C120.844 590.633 120.547 591.247 119.953 591.68C119.359 592.112 118.526 592.328 117.453 592.328C116.318 592.328 115.432 592.148 114.797 591.789V590.586C115.208 590.794 115.648 590.958 116.117 591.078C116.591 591.198 117.047 591.258 117.484 591.258C118.161 591.258 118.682 591.151 119.047 590.938C119.411 590.719 119.594 590.388 119.594 589.945C119.594 589.612 119.448 589.328 119.156 589.094C118.87 588.854 118.307 588.573 117.469 588.25C116.672 587.953 116.104 587.695 115.766 587.477C115.432 587.253 115.182 587 115.016 586.719C114.854 586.438 114.773 586.102 114.773 585.711C114.773 585.013 115.057 584.464 115.625 584.062C116.193 583.656 116.971 583.453 117.961 583.453C118.883 583.453 119.784 583.641 120.664 584.016L120.203 585.07C119.344 584.716 118.565 584.539 117.867 584.539C117.253 584.539 116.789 584.635 116.477 584.828C116.164 585.021 116.008 585.286 116.008 585.625C116.008 585.854 116.065 586.049 116.18 586.211C116.299 586.372 116.49 586.526 116.75 586.672C117.01 586.818 117.51 587.029 118.25 587.305C119.266 587.674 119.951 588.047 120.305 588.422C120.664 588.797 120.844 589.268 120.844 589.836ZM126.578 592.328C125.312 592.328 124.312 591.943 123.578 591.172C122.849 590.401 122.484 589.331 122.484 587.961C122.484 586.581 122.823 585.484 123.5 584.672C124.182 583.859 125.096 583.453 126.242 583.453C127.315 583.453 128.164 583.807 128.789 584.516C129.414 585.219 129.727 586.148 129.727 587.305V588.125H123.828C123.854 589.13 124.107 589.893 124.586 590.414C125.07 590.935 125.75 591.195 126.625 591.195C127.547 591.195 128.458 591.003 129.359 590.617V591.773C128.901 591.971 128.466 592.112 128.055 592.195C127.648 592.284 127.156 592.328 126.578 592.328ZM126.227 584.539C125.539 584.539 124.99 584.763 124.578 585.211C124.172 585.659 123.932 586.279 123.859 587.07H128.336C128.336 586.253 128.154 585.628 127.789 585.195C127.424 584.758 126.904 584.539 126.227 584.539ZM137.469 589.836C137.469 590.633 137.172 591.247 136.578 591.68C135.984 592.112 135.151 592.328 134.078 592.328C132.943 592.328 132.057 592.148 131.422 591.789V590.586C131.833 590.794 132.273 590.958 132.742 591.078C133.216 591.198 133.672 591.258 134.109 591.258C134.786 591.258 135.307 591.151 135.672 590.938C136.036 590.719 136.219 590.388 136.219 589.945C136.219 589.612 136.073 589.328 135.781 589.094C135.495 588.854 134.932 588.573 134.094 588.25C133.297 587.953 132.729 587.695 132.391 587.477C132.057 587.253 131.807 587 131.641 586.719C131.479 586.438 131.398 586.102 131.398 585.711C131.398 585.013 131.682 584.464 132.25 584.062C132.818 583.656 133.596 583.453 134.586 583.453C135.508 583.453 136.409 583.641 137.289 584.016L136.828 585.07C135.969 584.716 135.19 584.539 134.492 584.539C133.878 584.539 133.414 584.635 133.102 584.828C132.789 585.021 132.633 585.286 132.633 585.625C132.633 585.854 132.69 586.049 132.805 586.211C132.924 586.372 133.115 586.526 133.375 586.672C133.635 586.818 134.135 587.029 134.875 587.305C135.891 587.674 136.576 588.047 136.93 588.422C137.289 588.797 137.469 589.268 137.469 589.836ZM147.727 583.469C148.852 583.469 149.724 583.854 150.344 584.625C150.969 585.391 151.281 586.477 151.281 587.883C151.281 589.289 150.966 590.383 150.336 591.164C149.711 591.94 148.841 592.328 147.727 592.328C147.169 592.328 146.659 592.227 146.195 592.023C145.737 591.815 145.352 591.497 145.039 591.07H144.945L144.672 592.172H143.742V580.016H145.039V582.969C145.039 583.63 145.018 584.224 144.977 584.75H145.039C145.643 583.896 146.539 583.469 147.727 583.469ZM147.539 584.555C146.654 584.555 146.016 584.81 145.625 585.32C145.234 585.826 145.039 586.68 145.039 587.883C145.039 589.086 145.24 589.948 145.641 590.469C146.042 590.984 146.685 591.242 147.57 591.242C148.367 591.242 148.961 590.953 149.352 590.375C149.742 589.792 149.938 588.956 149.938 587.867C149.938 586.753 149.742 585.922 149.352 585.375C148.961 584.828 148.357 584.555 147.539 584.555ZM157.172 592.328C155.906 592.328 154.906 591.943 154.172 591.172C153.443 590.401 153.078 589.331 153.078 587.961C153.078 586.581 153.417 585.484 154.094 584.672C154.776 583.859 155.69 583.453 156.836 583.453C157.909 583.453 158.758 583.807 159.383 584.516C160.008 585.219 160.32 586.148 160.32 587.305V588.125H154.422C154.448 589.13 154.701 589.893 155.18 590.414C155.664 590.935 156.344 591.195 157.219 591.195C158.141 591.195 159.052 591.003 159.953 590.617V591.773C159.495 591.971 159.06 592.112 158.648 592.195C158.242 592.284 157.75 592.328 157.172 592.328ZM156.82 584.539C156.133 584.539 155.583 584.763 155.172 585.211C154.766 585.659 154.526 586.279 154.453 587.07H158.93C158.93 586.253 158.747 585.628 158.383 585.195C158.018 584.758 157.497 584.539 156.82 584.539ZM163.836 592.172H162.539V580.016H163.836V592.172ZM171.852 592.172L171.594 590.953H171.531C171.104 591.49 170.677 591.854 170.25 592.047C169.828 592.234 169.299 592.328 168.664 592.328C167.815 592.328 167.148 592.109 166.664 591.672C166.185 591.234 165.945 590.612 165.945 589.805C165.945 588.076 167.328 587.169 170.094 587.086L171.547 587.039V586.508C171.547 585.836 171.401 585.341 171.109 585.023C170.823 584.701 170.362 584.539 169.727 584.539C169.013 584.539 168.206 584.758 167.305 585.195L166.906 584.203C167.328 583.974 167.789 583.794 168.289 583.664C168.794 583.534 169.299 583.469 169.805 583.469C170.826 583.469 171.581 583.695 172.07 584.148C172.565 584.602 172.812 585.328 172.812 586.328V592.172H171.852ZM168.922 591.258C169.729 591.258 170.362 591.036 170.82 590.594C171.284 590.151 171.516 589.531 171.516 588.734V587.961L170.219 588.016C169.188 588.052 168.443 588.214 167.984 588.5C167.531 588.781 167.305 589.221 167.305 589.82C167.305 590.289 167.445 590.646 167.727 590.891C168.013 591.135 168.411 591.258 168.922 591.258ZM174.453 596.016C173.958 596.016 173.557 595.951 173.25 595.82V594.766C173.609 594.87 173.964 594.922 174.312 594.922C174.719 594.922 175.016 594.81 175.203 594.586C175.396 594.367 175.492 594.031 175.492 593.578V583.609H176.789V593.484C176.789 595.172 176.01 596.016 174.453 596.016ZM175.383 581.289C175.383 580.992 175.456 580.776 175.602 580.641C175.747 580.5 175.93 580.43 176.148 580.43C176.357 580.43 176.536 580.5 176.688 580.641C176.839 580.781 176.914 580.997 176.914 581.289C176.914 581.581 176.839 581.799 176.688 581.945C176.536 582.086 176.357 582.156 176.148 582.156C175.93 582.156 175.747 582.086 175.602 581.945C175.456 581.799 175.383 581.581 175.383 581.289ZM184.805 592.172L184.547 590.953H184.484C184.057 591.49 183.63 591.854 183.203 592.047C182.781 592.234 182.253 592.328 181.617 592.328C180.768 592.328 180.102 592.109 179.617 591.672C179.138 591.234 178.898 590.612 178.898 589.805C178.898 588.076 180.281 587.169 183.047 587.086L184.5 587.039V586.508C184.5 585.836 184.354 585.341 184.062 585.023C183.776 584.701 183.315 584.539 182.68 584.539C181.966 584.539 181.159 584.758 180.258 585.195L179.859 584.203C180.281 583.974 180.742 583.794 181.242 583.664C181.747 583.534 182.253 583.469 182.758 583.469C183.779 583.469 184.534 583.695 185.023 584.148C185.518 584.602 185.766 585.328 185.766 586.328V592.172H184.805ZM181.875 591.258C182.682 591.258 183.315 591.036 183.773 590.594C184.237 590.151 184.469 589.531 184.469 588.734V587.961L183.172 588.016C182.141 588.052 181.396 588.214 180.938 588.5C180.484 588.781 180.258 589.221 180.258 589.82C180.258 590.289 180.398 590.646 180.68 590.891C180.966 591.135 181.365 591.258 181.875 591.258ZM192.352 583.453C192.732 583.453 193.073 583.484 193.375 583.547L193.195 584.75C192.841 584.672 192.529 584.633 192.258 584.633C191.565 584.633 190.971 584.914 190.477 585.477C189.987 586.039 189.742 586.74 189.742 587.578V592.172H188.445V583.609H189.516L189.664 585.195H189.727C190.044 584.638 190.427 584.208 190.875 583.906C191.323 583.604 191.815 583.453 192.352 583.453ZM194.789 591.344C194.789 590.995 194.867 590.732 195.023 590.555C195.185 590.372 195.414 590.281 195.711 590.281C196.013 590.281 196.247 590.372 196.414 590.555C196.586 590.732 196.672 590.995 196.672 591.344C196.672 591.682 196.586 591.943 196.414 592.125C196.242 592.307 196.008 592.398 195.711 592.398C195.445 592.398 195.224 592.318 195.047 592.156C194.875 591.99 194.789 591.719 194.789 591.344ZM203.594 580.75H206.82C208.336 580.75 209.432 580.977 210.109 581.43C210.786 581.883 211.125 582.599 211.125 583.578C211.125 584.255 210.935 584.815 210.555 585.258C210.18 585.695 209.63 585.979 208.906 586.109V586.188C210.641 586.484 211.508 587.396 211.508 588.922C211.508 589.943 211.161 590.74 210.469 591.312C209.781 591.885 208.818 592.172 207.578 592.172H203.594V580.75ZM204.922 585.641H207.109C208.047 585.641 208.721 585.495 209.133 585.203C209.544 584.906 209.75 584.409 209.75 583.711C209.75 583.07 209.521 582.609 209.062 582.328C208.604 582.042 207.875 581.898 206.875 581.898H204.922V585.641ZM204.922 586.766V591.039H207.305C208.227 591.039 208.919 590.862 209.383 590.508C209.852 590.148 210.086 589.589 210.086 588.828C210.086 588.12 209.846 587.599 209.367 587.266C208.893 586.932 208.169 586.766 207.195 586.766H204.922ZM219.039 592.172L218.781 590.953H218.719C218.292 591.49 217.865 591.854 217.438 592.047C217.016 592.234 216.487 592.328 215.852 592.328C215.003 592.328 214.336 592.109 213.852 591.672C213.372 591.234 213.133 590.612 213.133 589.805C213.133 588.076 214.516 587.169 217.281 587.086L218.734 587.039V586.508C218.734 585.836 218.589 585.341 218.297 585.023C218.01 584.701 217.549 584.539 216.914 584.539C216.201 584.539 215.393 584.758 214.492 585.195L214.094 584.203C214.516 583.974 214.977 583.794 215.477 583.664C215.982 583.534 216.487 583.469 216.992 583.469C218.013 583.469 218.768 583.695 219.258 584.148C219.753 584.602 220 585.328 220 586.328V592.172H219.039ZM216.109 591.258C216.917 591.258 217.549 591.036 218.008 590.594C218.471 590.151 218.703 589.531 218.703 588.734V587.961L217.406 588.016C216.375 588.052 215.63 588.214 215.172 588.5C214.719 588.781 214.492 589.221 214.492 589.82C214.492 590.289 214.633 590.646 214.914 590.891C215.201 591.135 215.599 591.258 216.109 591.258ZM223.977 592.172H222.68V583.609H223.977V592.172ZM222.57 581.289C222.57 580.992 222.643 580.776 222.789 580.641C222.935 580.5 223.117 580.43 223.336 580.43C223.544 580.43 223.724 580.5 223.875 580.641C224.026 580.781 224.102 580.997 224.102 581.289C224.102 581.581 224.026 581.799 223.875 581.945C223.724 582.086 223.544 582.156 223.336 582.156C223.117 582.156 222.935 582.086 222.789 581.945C222.643 581.799 222.57 581.581 222.57 581.289ZM228.008 587.789C228.232 587.471 228.573 587.055 229.031 586.539L231.797 583.609H233.336L229.867 587.258L233.578 592.172H232.008L228.984 588.125L228.008 588.969V592.172H226.727V580.016H228.008V586.461C228.008 586.747 227.987 587.19 227.945 587.789H228.008ZM250.203 592.172V586.602C250.203 585.919 250.057 585.409 249.766 585.07C249.474 584.727 249.021 584.555 248.406 584.555C247.599 584.555 247.003 584.786 246.617 585.25C246.232 585.714 246.039 586.427 246.039 587.391V592.172H244.742V586.602C244.742 585.919 244.596 585.409 244.305 585.07C244.013 584.727 243.557 584.555 242.938 584.555C242.125 584.555 241.529 584.799 241.148 585.289C240.773 585.773 240.586 586.57 240.586 587.68V592.172H239.289V583.609H240.344L240.555 584.781H240.617C240.862 584.365 241.206 584.039 241.648 583.805C242.096 583.57 242.596 583.453 243.148 583.453C244.487 583.453 245.362 583.938 245.773 584.906H245.836C246.091 584.458 246.461 584.104 246.945 583.844C247.43 583.583 247.982 583.453 248.602 583.453C249.57 583.453 250.294 583.703 250.773 584.203C251.258 584.698 251.5 585.492 251.5 586.586V592.172H250.203ZM257.797 592.328C256.531 592.328 255.531 591.943 254.797 591.172C254.068 590.401 253.703 589.331 253.703 587.961C253.703 586.581 254.042 585.484 254.719 584.672C255.401 583.859 256.315 583.453 257.461 583.453C258.534 583.453 259.383 583.807 260.008 584.516C260.633 585.219 260.945 586.148 260.945 587.305V588.125H255.047C255.073 589.13 255.326 589.893 255.805 590.414C256.289 590.935 256.969 591.195 257.844 591.195C258.766 591.195 259.677 591.003 260.578 590.617V591.773C260.12 591.971 259.685 592.112 259.273 592.195C258.867 592.284 258.375 592.328 257.797 592.328ZM257.445 584.539C256.758 584.539 256.208 584.763 255.797 585.211C255.391 585.659 255.151 586.279 255.078 587.07H259.555C259.555 586.253 259.372 585.628 259.008 585.195C258.643 584.758 258.122 584.539 257.445 584.539ZM269.023 592.172V586.633C269.023 585.935 268.865 585.414 268.547 585.07C268.229 584.727 267.732 584.555 267.055 584.555C266.159 584.555 265.503 584.797 265.086 585.281C264.669 585.766 264.461 586.565 264.461 587.68V592.172H263.164V583.609H264.219L264.43 584.781H264.492C264.758 584.359 265.13 584.034 265.609 583.805C266.089 583.57 266.622 583.453 267.211 583.453C268.242 583.453 269.018 583.703 269.539 584.203C270.06 584.698 270.32 585.492 270.32 586.586V592.172H269.023ZM275.758 591.258C275.987 591.258 276.208 591.242 276.422 591.211C276.635 591.174 276.805 591.138 276.93 591.102V592.094C276.789 592.161 276.581 592.216 276.305 592.258C276.034 592.305 275.789 592.328 275.57 592.328C273.914 592.328 273.086 591.456 273.086 589.711V584.617H271.859V583.992L273.086 583.453L273.633 581.625H274.383V583.609H276.867V584.617H274.383V589.656C274.383 590.172 274.505 590.568 274.75 590.844C274.995 591.12 275.331 591.258 275.758 591.258ZM286.039 587.883C286.039 589.279 285.688 590.37 284.984 591.156C284.281 591.938 283.31 592.328 282.07 592.328C281.305 592.328 280.625 592.148 280.031 591.789C279.438 591.43 278.979 590.914 278.656 590.242C278.333 589.57 278.172 588.784 278.172 587.883C278.172 586.487 278.521 585.401 279.219 584.625C279.917 583.844 280.885 583.453 282.125 583.453C283.323 583.453 284.273 583.852 284.977 584.648C285.685 585.445 286.039 586.523 286.039 587.883ZM279.516 587.883C279.516 588.977 279.734 589.81 280.172 590.383C280.609 590.956 281.253 591.242 282.102 591.242C282.951 591.242 283.594 590.958 284.031 590.391C284.474 589.818 284.695 588.982 284.695 587.883C284.695 586.794 284.474 585.969 284.031 585.406C283.594 584.839 282.945 584.555 282.086 584.555C281.237 584.555 280.596 584.833 280.164 585.391C279.732 585.948 279.516 586.779 279.516 587.883ZM292.227 583.453C292.607 583.453 292.948 583.484 293.25 583.547L293.07 584.75C292.716 584.672 292.404 584.633 292.133 584.633C291.44 584.633 290.846 584.914 290.352 585.477C289.862 586.039 289.617 586.74 289.617 587.578V592.172H288.32V583.609H289.391L289.539 585.195H289.602C289.919 584.638 290.302 584.208 290.75 583.906C291.198 583.604 291.69 583.453 292.227 583.453ZM304.836 591.023H304.766C304.167 591.893 303.271 592.328 302.078 592.328C300.958 592.328 300.086 591.945 299.461 591.18C298.841 590.414 298.531 589.326 298.531 587.914C298.531 586.503 298.844 585.406 299.469 584.625C300.094 583.844 300.964 583.453 302.078 583.453C303.24 583.453 304.13 583.875 304.75 584.719H304.852L304.797 584.102L304.766 583.5V580.016H306.062V592.172H305.008L304.836 591.023ZM302.242 591.242C303.128 591.242 303.768 591.003 304.164 590.523C304.565 590.039 304.766 589.26 304.766 588.188V587.914C304.766 586.701 304.562 585.836 304.156 585.32C303.755 584.799 303.112 584.539 302.227 584.539C301.466 584.539 300.883 584.836 300.477 585.43C300.076 586.018 299.875 586.852 299.875 587.93C299.875 589.023 300.076 589.849 300.477 590.406C300.878 590.964 301.466 591.242 302.242 591.242ZM310.117 592.172H308.82V583.609H310.117V592.172ZM308.711 581.289C308.711 580.992 308.784 580.776 308.93 580.641C309.076 580.5 309.258 580.43 309.477 580.43C309.685 580.43 309.865 580.5 310.016 580.641C310.167 580.781 310.242 580.997 310.242 581.289C310.242 581.581 310.167 581.799 310.016 581.945C309.865 582.086 309.685 582.156 309.477 582.156C309.258 582.156 309.076 582.086 308.93 581.945C308.784 581.799 308.711 581.581 308.711 581.289ZM321.008 583.469C322.133 583.469 323.005 583.854 323.625 584.625C324.25 585.391 324.562 586.477 324.562 587.883C324.562 589.289 324.247 590.383 323.617 591.164C322.992 591.94 322.122 592.328 321.008 592.328C320.451 592.328 319.94 592.227 319.477 592.023C319.018 591.815 318.633 591.497 318.32 591.07H318.227L317.953 592.172H317.023V580.016H318.32V582.969C318.32 583.63 318.299 584.224 318.258 584.75H318.32C318.924 583.896 319.82 583.469 321.008 583.469ZM320.82 584.555C319.935 584.555 319.297 584.81 318.906 585.32C318.516 585.826 318.32 586.68 318.32 587.883C318.32 589.086 318.521 589.948 318.922 590.469C319.323 590.984 319.966 591.242 320.852 591.242C321.648 591.242 322.242 590.953 322.633 590.375C323.023 589.792 323.219 588.956 323.219 587.867C323.219 586.753 323.023 585.922 322.633 585.375C322.242 584.828 321.638 584.555 320.82 584.555ZM334.227 587.883C334.227 589.279 333.875 590.37 333.172 591.156C332.469 591.938 331.497 592.328 330.258 592.328C329.492 592.328 328.812 592.148 328.219 591.789C327.625 591.43 327.167 590.914 326.844 590.242C326.521 589.57 326.359 588.784 326.359 587.883C326.359 586.487 326.708 585.401 327.406 584.625C328.104 583.844 329.073 583.453 330.312 583.453C331.51 583.453 332.461 583.852 333.164 584.648C333.872 585.445 334.227 586.523 334.227 587.883ZM327.703 587.883C327.703 588.977 327.922 589.81 328.359 590.383C328.797 590.956 329.44 591.242 330.289 591.242C331.138 591.242 331.781 590.958 332.219 590.391C332.661 589.818 332.883 588.982 332.883 587.883C332.883 586.794 332.661 585.969 332.219 585.406C331.781 584.839 331.133 584.555 330.273 584.555C329.424 584.555 328.784 584.833 328.352 585.391C327.919 585.948 327.703 586.779 327.703 587.883ZM343.898 587.883C343.898 589.279 343.547 590.37 342.844 591.156C342.141 591.938 341.169 592.328 339.93 592.328C339.164 592.328 338.484 592.148 337.891 591.789C337.297 591.43 336.839 590.914 336.516 590.242C336.193 589.57 336.031 588.784 336.031 587.883C336.031 586.487 336.38 585.401 337.078 584.625C337.776 583.844 338.745 583.453 339.984 583.453C341.182 583.453 342.133 583.852 342.836 584.648C343.544 585.445 343.898 586.523 343.898 587.883ZM337.375 587.883C337.375 588.977 337.594 589.81 338.031 590.383C338.469 590.956 339.112 591.242 339.961 591.242C340.81 591.242 341.453 590.958 341.891 590.391C342.333 589.818 342.555 588.982 342.555 587.883C342.555 586.794 342.333 585.969 341.891 585.406C341.453 584.839 340.805 584.555 339.945 584.555C339.096 584.555 338.456 584.833 338.023 585.391C337.591 585.948 337.375 586.779 337.375 587.883ZM348.945 591.258C349.174 591.258 349.396 591.242 349.609 591.211C349.823 591.174 349.992 591.138 350.117 591.102V592.094C349.977 592.161 349.768 592.216 349.492 592.258C349.221 592.305 348.977 592.328 348.758 592.328C347.102 592.328 346.273 591.456 346.273 589.711V584.617H345.047V583.992L346.273 583.453L346.82 581.625H347.57V583.609H350.055V584.617H347.57V589.656C347.57 590.172 347.693 590.568 347.938 590.844C348.182 591.12 348.518 591.258 348.945 591.258ZM355.258 592.328C354.018 592.328 353.057 591.948 352.375 591.188C351.698 590.422 351.359 589.341 351.359 587.945C351.359 586.513 351.703 585.406 352.391 584.625C353.083 583.844 354.068 583.453 355.344 583.453C355.755 583.453 356.167 583.497 356.578 583.586C356.99 583.674 357.312 583.779 357.547 583.898L357.148 585C356.862 584.885 356.549 584.792 356.211 584.719C355.872 584.641 355.573 584.602 355.312 584.602C353.573 584.602 352.703 585.711 352.703 587.93C352.703 588.982 352.914 589.789 353.336 590.352C353.763 590.914 354.393 591.195 355.227 591.195C355.94 591.195 356.672 591.042 357.422 590.734V591.883C356.849 592.18 356.128 592.328 355.258 592.328ZM364.727 592.172L364.469 590.953H364.406C363.979 591.49 363.552 591.854 363.125 592.047C362.703 592.234 362.174 592.328 361.539 592.328C360.69 592.328 360.023 592.109 359.539 591.672C359.06 591.234 358.82 590.612 358.82 589.805C358.82 588.076 360.203 587.169 362.969 587.086L364.422 587.039V586.508C364.422 585.836 364.276 585.341 363.984 585.023C363.698 584.701 363.237 584.539 362.602 584.539C361.888 584.539 361.081 584.758 360.18 585.195L359.781 584.203C360.203 583.974 360.664 583.794 361.164 583.664C361.669 583.534 362.174 583.469 362.68 583.469C363.701 583.469 364.456 583.695 364.945 584.148C365.44 584.602 365.688 585.328 365.688 586.328V592.172H364.727ZM361.797 591.258C362.604 591.258 363.237 591.036 363.695 590.594C364.159 590.151 364.391 589.531 364.391 588.734V587.961L363.094 588.016C362.062 588.052 361.318 588.214 360.859 588.5C360.406 588.781 360.18 589.221 360.18 589.82C360.18 590.289 360.32 590.646 360.602 590.891C360.888 591.135 361.286 591.258 361.797 591.258ZM379.281 592.172V586.602C379.281 585.919 379.135 585.409 378.844 585.07C378.552 584.727 378.099 584.555 377.484 584.555C376.677 584.555 376.081 584.786 375.695 585.25C375.31 585.714 375.117 586.427 375.117 587.391V592.172H373.82V586.602C373.82 585.919 373.674 585.409 373.383 585.07C373.091 584.727 372.635 584.555 372.016 584.555C371.203 584.555 370.607 584.799 370.227 585.289C369.852 585.773 369.664 586.57 369.664 587.68V592.172H368.367V583.609H369.422L369.633 584.781H369.695C369.94 584.365 370.284 584.039 370.727 583.805C371.174 583.57 371.674 583.453 372.227 583.453C373.565 583.453 374.44 583.938 374.852 584.906H374.914C375.169 584.458 375.539 584.104 376.023 583.844C376.508 583.583 377.06 583.453 377.68 583.453C378.648 583.453 379.372 583.703 379.852 584.203C380.336 584.698 380.578 585.492 380.578 586.586V592.172H379.281ZM387.242 592.328C386.685 592.328 386.174 592.227 385.711 592.023C385.253 591.815 384.867 591.497 384.555 591.07H384.461C384.523 591.57 384.555 592.044 384.555 592.492V596.016H383.258V583.609H384.312L384.492 584.781H384.555C384.888 584.312 385.276 583.974 385.719 583.766C386.161 583.557 386.669 583.453 387.242 583.453C388.378 583.453 389.253 583.841 389.867 584.617C390.487 585.393 390.797 586.482 390.797 587.883C390.797 589.289 390.482 590.383 389.852 591.164C389.227 591.94 388.357 592.328 387.242 592.328ZM387.055 584.555C386.18 584.555 385.547 584.797 385.156 585.281C384.766 585.766 384.565 586.536 384.555 587.594V587.883C384.555 589.086 384.755 589.948 385.156 590.469C385.557 590.984 386.201 591.242 387.086 591.242C387.826 591.242 388.404 590.943 388.82 590.344C389.242 589.745 389.453 588.919 389.453 587.867C389.453 586.799 389.242 585.982 388.82 585.414C388.404 584.841 387.815 584.555 387.055 584.555ZM408.141 592.172V586.602C408.141 585.919 407.995 585.409 407.703 585.07C407.411 584.727 406.958 584.555 406.344 584.555C405.536 584.555 404.94 584.786 404.555 585.25C404.169 585.714 403.977 586.427 403.977 587.391V592.172H402.68V586.602C402.68 585.919 402.534 585.409 402.242 585.07C401.951 584.727 401.495 584.555 400.875 584.555C400.062 584.555 399.466 584.799 399.086 585.289C398.711 585.773 398.523 586.57 398.523 587.68V592.172H397.227V583.609H398.281L398.492 584.781H398.555C398.799 584.365 399.143 584.039 399.586 583.805C400.034 583.57 400.534 583.453 401.086 583.453C402.424 583.453 403.299 583.938 403.711 584.906H403.773C404.029 584.458 404.398 584.104 404.883 583.844C405.367 583.583 405.919 583.453 406.539 583.453C407.508 583.453 408.232 583.703 408.711 584.203C409.195 584.698 409.438 585.492 409.438 586.586V592.172H408.141ZM417.383 592.172L417.125 590.953H417.062C416.635 591.49 416.208 591.854 415.781 592.047C415.359 592.234 414.831 592.328 414.195 592.328C413.346 592.328 412.68 592.109 412.195 591.672C411.716 591.234 411.477 590.612 411.477 589.805C411.477 588.076 412.859 587.169 415.625 587.086L417.078 587.039V586.508C417.078 585.836 416.932 585.341 416.641 585.023C416.354 584.701 415.893 584.539 415.258 584.539C414.544 584.539 413.737 584.758 412.836 585.195L412.438 584.203C412.859 583.974 413.32 583.794 413.82 583.664C414.326 583.534 414.831 583.469 415.336 583.469C416.357 583.469 417.112 583.695 417.602 584.148C418.096 584.602 418.344 585.328 418.344 586.328V592.172H417.383ZM414.453 591.258C415.26 591.258 415.893 591.036 416.352 590.594C416.815 590.151 417.047 589.531 417.047 588.734V587.961L415.75 588.016C414.719 588.052 413.974 588.214 413.516 588.5C413.062 588.781 412.836 589.221 412.836 589.82C412.836 590.289 412.977 590.646 413.258 590.891C413.544 591.135 413.943 591.258 414.453 591.258ZM422.242 583.609V589.164C422.242 589.862 422.401 590.383 422.719 590.727C423.036 591.07 423.534 591.242 424.211 591.242C425.107 591.242 425.76 590.997 426.172 590.508C426.589 590.018 426.797 589.219 426.797 588.109V583.609H428.094V592.172H427.023L426.836 591.023H426.766C426.5 591.445 426.13 591.768 425.656 591.992C425.188 592.216 424.651 592.328 424.047 592.328C423.005 592.328 422.224 592.081 421.703 591.586C421.188 591.091 420.93 590.299 420.93 589.211V583.609H422.242ZM434.836 592.328C434.279 592.328 433.768 592.227 433.305 592.023C432.846 591.815 432.461 591.497 432.148 591.07H432.055C432.117 591.57 432.148 592.044 432.148 592.492V596.016H430.852V583.609H431.906L432.086 584.781H432.148C432.482 584.312 432.87 583.974 433.312 583.766C433.755 583.557 434.263 583.453 434.836 583.453C435.971 583.453 436.846 583.841 437.461 584.617C438.081 585.393 438.391 586.482 438.391 587.883C438.391 589.289 438.076 590.383 437.445 591.164C436.82 591.94 435.951 592.328 434.836 592.328ZM434.648 584.555C433.773 584.555 433.141 584.797 432.75 585.281C432.359 585.766 432.159 586.536 432.148 587.594V587.883C432.148 589.086 432.349 589.948 432.75 590.469C433.151 590.984 433.794 591.242 434.68 591.242C435.419 591.242 435.997 590.943 436.414 590.344C436.836 589.745 437.047 588.919 437.047 587.867C437.047 586.799 436.836 585.982 436.414 585.414C435.997 584.841 435.409 584.555 434.648 584.555ZM441.883 583.609V589.164C441.883 589.862 442.042 590.383 442.359 590.727C442.677 591.07 443.174 591.242 443.852 591.242C444.747 591.242 445.401 590.997 445.812 590.508C446.229 590.018 446.438 589.219 446.438 588.109V583.609H447.734V592.172H446.664L446.477 591.023H446.406C446.141 591.445 445.771 591.768 445.297 591.992C444.828 592.216 444.292 592.328 443.688 592.328C442.646 592.328 441.865 592.081 441.344 591.586C440.828 591.091 440.57 590.299 440.57 589.211V583.609H441.883ZM456.352 592.172V586.633C456.352 585.935 456.193 585.414 455.875 585.07C455.557 584.727 455.06 584.555 454.383 584.555C453.487 584.555 452.831 584.797 452.414 585.281C451.997 585.766 451.789 586.565 451.789 587.68V592.172H450.492V583.609H451.547L451.758 584.781H451.82C452.086 584.359 452.458 584.034 452.938 583.805C453.417 583.57 453.951 583.453 454.539 583.453C455.57 583.453 456.346 583.703 456.867 584.203C457.388 584.698 457.648 585.492 457.648 586.586V592.172H456.352ZM470.305 591.023H470.234C469.635 591.893 468.74 592.328 467.547 592.328C466.427 592.328 465.555 591.945 464.93 591.18C464.31 590.414 464 589.326 464 587.914C464 586.503 464.312 585.406 464.938 584.625C465.562 583.844 466.432 583.453 467.547 583.453C468.708 583.453 469.599 583.875 470.219 584.719H470.32L470.266 584.102L470.234 583.5V580.016H471.531V592.172H470.477L470.305 591.023ZM467.711 591.242C468.596 591.242 469.237 591.003 469.633 590.523C470.034 590.039 470.234 589.26 470.234 588.188V587.914C470.234 586.701 470.031 585.836 469.625 585.32C469.224 584.799 468.581 584.539 467.695 584.539C466.935 584.539 466.352 584.836 465.945 585.43C465.544 586.018 465.344 586.852 465.344 587.93C465.344 589.023 465.544 589.849 465.945 590.406C466.346 590.964 466.935 591.242 467.711 591.242ZM479.555 592.172L479.297 590.953H479.234C478.807 591.49 478.38 591.854 477.953 592.047C477.531 592.234 477.003 592.328 476.367 592.328C475.518 592.328 474.852 592.109 474.367 591.672C473.888 591.234 473.648 590.612 473.648 589.805C473.648 588.076 475.031 587.169 477.797 587.086L479.25 587.039V586.508C479.25 585.836 479.104 585.341 478.812 585.023C478.526 584.701 478.065 584.539 477.43 584.539C476.716 584.539 475.909 584.758 475.008 585.195L474.609 584.203C475.031 583.974 475.492 583.794 475.992 583.664C476.497 583.534 477.003 583.469 477.508 583.469C478.529 583.469 479.284 583.695 479.773 584.148C480.268 584.602 480.516 585.328 480.516 586.328V592.172H479.555ZM476.625 591.258C477.432 591.258 478.065 591.036 478.523 590.594C478.987 590.151 479.219 589.531 479.219 588.734V587.961L477.922 588.016C476.891 588.052 476.146 588.214 475.688 588.5C475.234 588.781 475.008 589.221 475.008 589.82C475.008 590.289 475.148 590.646 475.43 590.891C475.716 591.135 476.115 591.258 476.625 591.258ZM484.492 592.172H483.195V580.016H484.492V592.172ZM492.508 592.172L492.25 590.953H492.188C491.76 591.49 491.333 591.854 490.906 592.047C490.484 592.234 489.956 592.328 489.32 592.328C488.471 592.328 487.805 592.109 487.32 591.672C486.841 591.234 486.602 590.612 486.602 589.805C486.602 588.076 487.984 587.169 490.75 587.086L492.203 587.039V586.508C492.203 585.836 492.057 585.341 491.766 585.023C491.479 584.701 491.018 584.539 490.383 584.539C489.669 584.539 488.862 584.758 487.961 585.195L487.562 584.203C487.984 583.974 488.445 583.794 488.945 583.664C489.451 583.534 489.956 583.469 490.461 583.469C491.482 583.469 492.237 583.695 492.727 584.148C493.221 584.602 493.469 585.328 493.469 586.328V592.172H492.508ZM489.578 591.258C490.385 591.258 491.018 591.036 491.477 590.594C491.94 590.151 492.172 589.531 492.172 588.734V587.961L490.875 588.016C489.844 588.052 489.099 588.214 488.641 588.5C488.188 588.781 487.961 589.221 487.961 589.82C487.961 590.289 488.102 590.646 488.383 590.891C488.669 591.135 489.068 591.258 489.578 591.258ZM507.062 592.172V586.602C507.062 585.919 506.917 585.409 506.625 585.07C506.333 584.727 505.88 584.555 505.266 584.555C504.458 584.555 503.862 584.786 503.477 585.25C503.091 585.714 502.898 586.427 502.898 587.391V592.172H501.602V586.602C501.602 585.919 501.456 585.409 501.164 585.07C500.872 584.727 500.417 584.555 499.797 584.555C498.984 584.555 498.388 584.799 498.008 585.289C497.633 585.773 497.445 586.57 497.445 587.68V592.172H496.148V583.609H497.203L497.414 584.781H497.477C497.721 584.365 498.065 584.039 498.508 583.805C498.956 583.57 499.456 583.453 500.008 583.453C501.346 583.453 502.221 583.938 502.633 584.906H502.695C502.951 584.458 503.32 584.104 503.805 583.844C504.289 583.583 504.841 583.453 505.461 583.453C506.43 583.453 507.154 583.703 507.633 584.203C508.117 584.698 508.359 585.492 508.359 586.586V592.172H507.062ZM526.109 592.172V586.602C526.109 585.919 525.964 585.409 525.672 585.07C525.38 584.727 524.927 584.555 524.312 584.555C523.505 584.555 522.909 584.786 522.523 585.25C522.138 585.714 521.945 586.427 521.945 587.391V592.172H520.648V586.602C520.648 585.919 520.503 585.409 520.211 585.07C519.919 584.727 519.464 584.555 518.844 584.555C518.031 584.555 517.435 584.799 517.055 585.289C516.68 585.773 516.492 586.57 516.492 587.68V592.172H515.195V583.609H516.25L516.461 584.781H516.523C516.768 584.365 517.112 584.039 517.555 583.805C518.003 583.57 518.503 583.453 519.055 583.453C520.393 583.453 521.268 583.938 521.68 584.906H521.742C521.997 584.458 522.367 584.104 522.852 583.844C523.336 583.583 523.888 583.453 524.508 583.453C525.477 583.453 526.201 583.703 526.68 584.203C527.164 584.698 527.406 585.492 527.406 586.586V592.172H526.109ZM537.477 587.883C537.477 589.279 537.125 590.37 536.422 591.156C535.719 591.938 534.747 592.328 533.508 592.328C532.742 592.328 532.062 592.148 531.469 591.789C530.875 591.43 530.417 590.914 530.094 590.242C529.771 589.57 529.609 588.784 529.609 587.883C529.609 586.487 529.958 585.401 530.656 584.625C531.354 583.844 532.323 583.453 533.562 583.453C534.76 583.453 535.711 583.852 536.414 584.648C537.122 585.445 537.477 586.523 537.477 587.883ZM530.953 587.883C530.953 588.977 531.172 589.81 531.609 590.383C532.047 590.956 532.69 591.242 533.539 591.242C534.388 591.242 535.031 590.958 535.469 590.391C535.911 589.818 536.133 588.982 536.133 587.883C536.133 586.794 535.911 585.969 535.469 585.406C535.031 584.839 534.383 584.555 533.523 584.555C532.674 584.555 532.034 584.833 531.602 585.391C531.169 585.948 530.953 586.779 530.953 587.883ZM545.586 591.023H545.516C544.917 591.893 544.021 592.328 542.828 592.328C541.708 592.328 540.836 591.945 540.211 591.18C539.591 590.414 539.281 589.326 539.281 587.914C539.281 586.503 539.594 585.406 540.219 584.625C540.844 583.844 541.714 583.453 542.828 583.453C543.99 583.453 544.88 583.875 545.5 584.719H545.602L545.547 584.102L545.516 583.5V580.016H546.812V592.172H545.758L545.586 591.023ZM542.992 591.242C543.878 591.242 544.518 591.003 544.914 590.523C545.315 590.039 545.516 589.26 545.516 588.188V587.914C545.516 586.701 545.312 585.836 544.906 585.32C544.505 584.799 543.862 584.539 542.977 584.539C542.216 584.539 541.633 584.836 541.227 585.43C540.826 586.018 540.625 586.852 540.625 587.93C540.625 589.023 540.826 589.849 541.227 590.406C541.628 590.964 542.216 591.242 542.992 591.242ZM550.789 583.609V589.164C550.789 589.862 550.948 590.383 551.266 590.727C551.583 591.07 552.081 591.242 552.758 591.242C553.654 591.242 554.307 590.997 554.719 590.508C555.135 590.018 555.344 589.219 555.344 588.109V583.609H556.641V592.172H555.57L555.383 591.023H555.312C555.047 591.445 554.677 591.768 554.203 591.992C553.734 592.216 553.198 592.328 552.594 592.328C551.552 592.328 550.771 592.081 550.25 591.586C549.734 591.091 549.477 590.299 549.477 589.211V583.609H550.789ZM560.695 592.172H559.398V580.016H560.695V592.172ZM285.336 611.883C285.336 613.279 284.984 614.37 284.281 615.156C283.578 615.938 282.607 616.328 281.367 616.328C280.602 616.328 279.922 616.148 279.328 615.789C278.734 615.43 278.276 614.914 277.953 614.242C277.63 613.57 277.469 612.784 277.469 611.883C277.469 610.487 277.818 609.401 278.516 608.625C279.214 607.844 280.182 607.453 281.422 607.453C282.62 607.453 283.57 607.852 284.273 608.648C284.982 609.445 285.336 610.523 285.336 611.883ZM278.812 611.883C278.812 612.977 279.031 613.81 279.469 614.383C279.906 614.956 280.549 615.242 281.398 615.242C282.247 615.242 282.891 614.958 283.328 614.391C283.771 613.818 283.992 612.982 283.992 611.883C283.992 610.794 283.771 609.969 283.328 609.406C282.891 608.839 282.242 608.555 281.383 608.555C280.534 608.555 279.893 608.833 279.461 609.391C279.029 609.948 278.812 610.779 278.812 611.883ZM293.477 616.172V610.633C293.477 609.935 293.318 609.414 293 609.07C292.682 608.727 292.185 608.555 291.508 608.555C290.612 608.555 289.956 608.797 289.539 609.281C289.122 609.766 288.914 610.565 288.914 611.68V616.172H287.617V607.609H288.672L288.883 608.781H288.945C289.211 608.359 289.583 608.034 290.062 607.805C290.542 607.57 291.076 607.453 291.664 607.453C292.695 607.453 293.471 607.703 293.992 608.203C294.513 608.698 294.773 609.492 294.773 610.586V616.172H293.477ZM298.742 616.172H297.445V604.016H298.742V616.172ZM302.789 616.172H301.492V607.609H302.789V616.172ZM301.383 605.289C301.383 604.992 301.456 604.776 301.602 604.641C301.747 604.5 301.93 604.43 302.148 604.43C302.357 604.43 302.536 604.5 302.688 604.641C302.839 604.781 302.914 604.997 302.914 605.289C302.914 605.581 302.839 605.799 302.688 605.945C302.536 606.086 302.357 606.156 302.148 606.156C301.93 606.156 301.747 606.086 301.602 605.945C301.456 605.799 301.383 605.581 301.383 605.289ZM311.398 616.172V610.633C311.398 609.935 311.24 609.414 310.922 609.07C310.604 608.727 310.107 608.555 309.43 608.555C308.534 608.555 307.878 608.797 307.461 609.281C307.044 609.766 306.836 610.565 306.836 611.68V616.172H305.539V607.609H306.594L306.805 608.781H306.867C307.133 608.359 307.505 608.034 307.984 607.805C308.464 607.57 308.997 607.453 309.586 607.453C310.617 607.453 311.393 607.703 311.914 608.203C312.435 608.698 312.695 609.492 312.695 610.586V616.172H311.398ZM318.984 616.328C317.719 616.328 316.719 615.943 315.984 615.172C315.255 614.401 314.891 613.331 314.891 611.961C314.891 610.581 315.229 609.484 315.906 608.672C316.589 607.859 317.503 607.453 318.648 607.453C319.721 607.453 320.57 607.807 321.195 608.516C321.82 609.219 322.133 610.148 322.133 611.305V612.125H316.234C316.26 613.13 316.513 613.893 316.992 614.414C317.477 614.935 318.156 615.195 319.031 615.195C319.953 615.195 320.865 615.003 321.766 614.617V615.773C321.307 615.971 320.872 616.112 320.461 616.195C320.055 616.284 319.562 616.328 318.984 616.328ZM318.633 608.539C317.945 608.539 317.396 608.763 316.984 609.211C316.578 609.659 316.339 610.279 316.266 611.07H320.742C320.742 610.253 320.56 609.628 320.195 609.195C319.831 608.758 319.31 608.539 318.633 608.539ZM329.789 611.789C330.013 611.471 330.354 611.055 330.812 610.539L333.578 607.609H335.117L331.648 611.258L335.359 616.172H333.789L330.766 612.125L329.789 612.969V616.172H328.508V604.016H329.789V610.461C329.789 610.747 329.768 611.19 329.727 611.789H329.789ZM342.18 616.172L341.922 614.953H341.859C341.432 615.49 341.005 615.854 340.578 616.047C340.156 616.234 339.628 616.328 338.992 616.328C338.143 616.328 337.477 616.109 336.992 615.672C336.513 615.234 336.273 614.612 336.273 613.805C336.273 612.076 337.656 611.169 340.422 611.086L341.875 611.039V610.508C341.875 609.836 341.729 609.341 341.438 609.023C341.151 608.701 340.69 608.539 340.055 608.539C339.341 608.539 338.534 608.758 337.633 609.195L337.234 608.203C337.656 607.974 338.117 607.794 338.617 607.664C339.122 607.534 339.628 607.469 340.133 607.469C341.154 607.469 341.909 607.695 342.398 608.148C342.893 608.602 343.141 609.328 343.141 610.328V616.172H342.18ZM339.25 615.258C340.057 615.258 340.69 615.036 341.148 614.594C341.612 614.151 341.844 613.531 341.844 612.734V611.961L340.547 612.016C339.516 612.052 338.771 612.214 338.312 612.5C337.859 612.781 337.633 613.221 337.633 613.82C337.633 614.289 337.773 614.646 338.055 614.891C338.341 615.135 338.74 615.258 339.25 615.258ZM356.734 616.172V610.602C356.734 609.919 356.589 609.409 356.297 609.07C356.005 608.727 355.552 608.555 354.938 608.555C354.13 608.555 353.534 608.786 353.148 609.25C352.763 609.714 352.57 610.427 352.57 611.391V616.172H351.273V610.602C351.273 609.919 351.128 609.409 350.836 609.07C350.544 608.727 350.089 608.555 349.469 608.555C348.656 608.555 348.06 608.799 347.68 609.289C347.305 609.773 347.117 610.57 347.117 611.68V616.172H345.82V607.609H346.875L347.086 608.781H347.148C347.393 608.365 347.737 608.039 348.18 607.805C348.628 607.57 349.128 607.453 349.68 607.453C351.018 607.453 351.893 607.938 352.305 608.906H352.367C352.622 608.458 352.992 608.104 353.477 607.844C353.961 607.583 354.513 607.453 355.133 607.453C356.102 607.453 356.826 607.703 357.305 608.203C357.789 608.698 358.031 609.492 358.031 610.586V616.172H356.734ZM361.93 607.609V613.164C361.93 613.862 362.089 614.383 362.406 614.727C362.724 615.07 363.221 615.242 363.898 615.242C364.794 615.242 365.448 614.997 365.859 614.508C366.276 614.018 366.484 613.219 366.484 612.109V607.609H367.781V616.172H366.711L366.523 615.023H366.453C366.188 615.445 365.818 615.768 365.344 615.992C364.875 616.216 364.339 616.328 363.734 616.328C362.693 616.328 361.911 616.081 361.391 615.586C360.875 615.091 360.617 614.299 360.617 613.211V607.609H361.93ZM370.352 615.344C370.352 614.995 370.43 614.732 370.586 614.555C370.747 614.372 370.977 614.281 371.273 614.281C371.576 614.281 371.81 614.372 371.977 614.555C372.148 614.732 372.234 614.995 372.234 615.344C372.234 615.682 372.148 615.943 371.977 616.125C371.805 616.307 371.57 616.398 371.273 616.398C371.008 616.398 370.786 616.318 370.609 616.156C370.438 615.99 370.352 615.719 370.352 615.344Z" fill="#5E50A1"/>
<rect x="263.045" y="674.915" width="46.7188" height="3.72367" fill="#5E50A1"/>
<rect x="317.891" y="674.915" width="30.4688" height="3.72367" fill="#5E50A1"/>
<rect x="356.486" y="674.915" width="30.4688" height="3.72367" fill="#5E50A1"/>
</g>
<path d="M56.5007 83.5C34.1007 47.5 65.8341 14.8333 84.5007 3C88.1013 1 91.0005 0.166667 92 0H0.125V822H294C224.167 795.667 82.0006 729.1 72.0001 673.5C59.4995 604 106.501 530.5 56.5007 440.5C6.50001 350.5 35.0014 280.5 56.5007 239C78 197.5 84.5007 128.5 56.5007 83.5Z" fill="white" fill-opacity="0.05"/>
<path d="M590.001 47C566.801 39 571.667 12.3333 577.001 0H650V247C600.5 264.5 572 176.5 590.001 151C608.002 125.5 619.001 57 590.001 47Z" fill="white" fill-opacity="0.05"/>
</svg>
