<svg width="24" height="24" viewBox="0 0 24 24" fill="none" xmlns="http://www.w3.org/2000/svg">
<g clip-path="url(#clip0_1_1158)">
<path d="M21.3682 21.7512C17.6957 24.749 6.2288 24.749 2.63131 21.7512C-1.04112 18.7533 -0.666388 5.93726 2.63131 2.56463C5.929 -0.808001 18.0705 -0.808001 21.3682 2.56463C24.6659 5.93726 25.0406 18.7533 21.3682 21.7512Z" fill="#5E50A1"/>
<g opacity="0.2">
<path opacity="0.2" d="M12.0745 16.5053C8.77679 19.1284 5.10437 20.4775 1.6568 20.5524C-0.891428 16.2055 -0.366774 5.63791 2.63112 2.56508C5.32923 -0.207961 13.7983 -0.732616 18.6699 0.991167C19.869 5.93771 17.3958 12.2332 12.0745 16.5053Z" fill="white"/>
</g>
<path d="M10.9142 18C10.4784 18 10.0427 17.8145 9.79364 17.4436L6.30732 12.9926C5.80926 12.3744 5.9338 11.5089 6.55635 11.0143C7.1789 10.5198 8.05048 10.6434 8.54854 11.2616L10.9142 14.2908L16.1438 7.55245C16.6418 6.93426 17.5134 6.8106 18.136 7.30516C18.7585 7.79973 18.883 8.66521 18.385 9.2834L12.0349 17.4436C11.7236 17.7527 11.3501 18 10.9142 18Z" fill="white"/>
</g>
<defs>
<clipPath id="clip0_1_1158">
<rect width="24" height="24" rx="12" fill="white"/>
</clipPath>
</defs>
</svg>
