<svg width="32" height="32" viewBox="0 0 32 32" fill="none" xmlns="http://www.w3.org/2000/svg">
<g clip-path="url(#clip0_1_3805)">
<path d="M27.6221 4.37828C27.3508 4.10698 26.9097 4.10698 26.6384 4.37828L16.8993 14.1174C16.628 14.3887 16.628 14.8298 16.8993 15.1011C17.0356 15.236 17.2137 15.3042 17.3918 15.3042C17.5699 15.3042 17.748 15.2361 17.883 15.1011L27.6221 5.36196C27.8934 5.09065 27.8934 4.64959 27.6221 4.37828Z" fill="#9EA0A5"/>
<path d="M27.1327 4.17383C26.7487 4.17383 26.437 4.4855 26.437 4.8695V13.2173C26.437 13.6013 26.7487 13.913 27.1327 13.913C27.5167 13.913 27.8284 13.6013 27.8284 13.2173V4.8695C27.8284 4.4855 27.5167 4.17383 27.1327 4.17383Z" fill="#9EA0A5"/>
<path d="M27.1324 4.17383H18.7845C18.4005 4.17383 18.0889 4.4855 18.0889 4.8695C18.0889 5.2535 18.4005 5.56511 18.7845 5.56511H27.1324C27.5164 5.56511 27.828 5.25343 27.828 4.86944C27.828 4.48544 27.5164 4.17383 27.1324 4.17383Z" fill="#9EA0A5"/>
<path d="M15.1015 16.8998C14.8302 16.6285 14.3892 16.6285 14.1179 16.8998L4.37877 26.6389C4.10747 26.9102 4.10747 27.3512 4.37877 27.6225C4.51514 27.7575 4.69318 27.8257 4.87129 27.8257C5.0494 27.8257 5.22744 27.7575 5.36244 27.6225L15.1015 17.8834C15.3729 17.6121 15.3729 17.1711 15.1015 16.8998Z" fill="#9EA0A5"/>
<path d="M4.87048 18.0869C4.48648 18.0869 4.1748 18.3986 4.1748 18.7826V27.1304C4.1748 27.5144 4.48648 27.8261 4.87048 27.8261C5.25448 27.8261 5.56608 27.5144 5.56608 27.1304V18.7826C5.56608 18.3986 5.25448 18.0869 4.87048 18.0869Z" fill="#9EA0A5"/>
<path d="M13.2183 26.4346H4.87048C4.48648 26.4346 4.1748 26.7462 4.1748 27.1302C4.1748 27.5142 4.48648 27.8259 4.87048 27.8259H13.2183C13.6023 27.8259 13.914 27.5142 13.914 27.1302C13.9139 26.7462 13.6023 26.4346 13.2183 26.4346Z" fill="#9EA0A5"/>
<path d="M29.913 0H2.08696C0.936325 0 0 0.936325 0 2.08696V29.913C0 31.0637 0.936325 32 2.08696 32H29.913C31.0637 32 32 31.0637 32 29.913V2.08696C32 0.936325 31.0636 0 29.913 0ZM30.6087 29.913C30.6087 30.2957 30.2956 30.6087 29.913 30.6087H2.08696C1.70432 30.6087 1.39128 30.2957 1.39128 29.913V2.08696C1.39128 1.70432 1.70432 1.39128 2.08696 1.39128H29.913C30.2957 1.39128 30.6087 1.70432 30.6087 2.08696V29.913H30.6087Z" fill="#9EA0A5"/>
</g>
<defs>
<clipPath id="clip0_1_3805">
<rect width="32" height="32" fill="white"/>
</clipPath>
</defs>
</svg>
