<svg width="114" height="64" viewBox="0 0 114 64" fill="none" xmlns="http://www.w3.org/2000/svg">
<path d="M90.1186 15.8058C88.1801 15.8058 86.2978 16.0425 84.4931 16.4785C79.073 6.89847 68.7923 0.431641 57 0.431641C45.2077 0.431641 34.927 6.89869 29.5069 16.4785C27.7022 16.0425 25.8199 15.8058 23.8814 15.8058C10.692 15.8058 0 26.4978 0 39.6873C0 52.8767 10.692 63.5687 23.8814 63.5687H49.9046V49.3779H38.0477V49.2259L56.7751 29.6684H57.2251L75.9525 49.2259V49.3779H64.0956V63.5687H90.1188C103.308 63.5687 114 52.8767 114 39.6873C114 26.4978 103.308 15.8058 90.1186 15.8058Z" fill="#9EA0A5"/>
</svg>
